<svg width="186" height="384" viewBox="0 0 186 384" fill="none" xmlns="http://www.w3.org/2000/svg">
<path d="M25.7765 21.7813C25.7765 21.7813 21.4496 46.4618 21.0213 59.1074C20.5931 71.753 17.4988 108.558 18.3329 110.844C19.167 113.127 43.5608 107.102 45.2737 91.0677C46.9866 75.0373 48.5505 31.8091 48.5505 31.8091C48.5505 31.8091 31.9578 15.8904 25.7765 21.7813Z" fill="#1C1011"/>
<g filter="url(#filter0_f_2_4300)">
<path d="M155.576 292.861C121.62 274.213 67.0681 275.483 33.7338 295.695C0.395716 315.911 0.902142 347.409 34.8583 366.054C68.8145 384.698 123.37 383.428 156.704 363.22C190.039 343.008 189.532 311.509 155.576 292.861Z" fill="#EAEAEA"/>
</g>
<path d="M103.906 291.543C103.906 291.543 101.873 295.926 101.769 298.711C101.665 301.493 100.804 304.594 101.769 306.095C102.733 307.592 107.12 309.301 109.901 309.301C112.683 309.301 116.746 307.696 121.884 309.301C127.019 310.91 127.984 313.047 133.439 314.224C138.898 315.404 147.991 314.976 149.168 314.864C150.344 314.76 152.806 312.191 153.126 310.694C153.446 309.197 153.446 306.628 149.596 304.062C145.746 301.493 137.185 301.705 133.335 298.603C129.481 295.501 124.96 292.075 122.782 291.543C120.6 291.007 106.904 287.048 103.906 291.543Z" fill="#070B0F"/>
<path d="M101.233 241.362L99.9929 246.293C99.9929 246.293 98.1311 264.043 98.1311 269.93C98.1311 275.814 101.873 294.645 101.873 294.645C101.873 294.645 110.114 298.175 114.5 297.534C118.891 296.89 121.24 293.892 122.313 293.04C123.381 292.183 131.086 241.016 131.086 241.016C131.086 241.016 103.177 239.113 101.233 241.362Z" fill="#131B24"/>
<path d="M87.1836 195.565C87.1836 195.565 99.092 233.443 101.233 241.363C103.374 249.279 119.107 248.434 124.558 246.39C128.84 244.785 130.442 242.729 131.086 241.016C131.726 239.304 126.271 189.578 111.719 170.531C97.1705 151.484 64.7894 167.962 87.1836 195.565Z" fill="#18212A"/>
<path d="M50.6284 332.202C50.6284 332.202 48.0553 336.8 47.6308 338.942C47.2026 341.079 46.8265 344.181 48.1893 347.607C49.5559 351.032 51.9093 362.267 56.94 366.973C61.9669 371.68 67.9584 371.68 71.4884 370.827C75.0184 369.967 76.0908 368.683 76.1988 363.659C76.3031 358.629 70.74 347.502 70.4198 346.858C70.0995 346.214 67.2285 334.983 67.3254 331.345C67.4222 327.707 53.5142 327.707 50.6284 332.202Z" fill="#070B0F"/>
<path d="M59.2112 276.879C59.2112 276.879 50.7324 287.369 48.878 302.777C47.0236 318.186 49.5892 333.594 48.878 334.16C48.163 334.73 55.4279 337.728 59.2112 337.303C63.0019 336.871 68.565 332.451 68.565 332.451C68.565 332.451 85.1466 291.498 86.4126 280.919C87.6787 270.34 62.2795 272.269 59.2112 276.879Z" fill="#18212A"/>
<path d="M74.9141 60.5374L78.3474 59.1074C78.3474 59.1074 83.4004 59.3308 86.4687 62.8944C91.6372 68.9007 94.8843 87.7797 94.8843 89.0718C94.888 103.993 90.8217 96.9177 86.4687 98.4146C82.1195 99.9152 73.8417 61.822 74.9141 60.5374Z" fill="#F8A27D"/>
<path d="M91.6071 88.8929L94.8877 114.143C94.8877 114.143 109.261 119.814 115.573 121.527C121.884 123.236 133.439 126.45 133.439 126.45C133.439 126.45 125.306 138.429 124.454 138.005C123.593 137.576 91.0709 134.579 89.4623 132.441C87.8611 130.3 84.3273 91.1383 91.6071 88.8929Z" fill="#F8A27D"/>
<path d="M39.8184 183.799C39.8184 183.799 38.962 203.273 41.9596 215.468C44.9534 227.663 52.2295 241.363 55.6515 259.978C59.0773 278.596 58.6491 282.446 70.6356 285.66C82.6147 288.87 87.1091 280.733 87.1091 279.024C87.1091 277.311 92.2441 205.839 93.3128 200.06C94.389 194.281 94.3889 173.812 83.6871 165.109C72.989 156.407 42.6 171.812 39.8184 183.799Z" fill="#222B35"/>
<path d="M32.8251 64.3987C32.8251 64.3987 13.7897 73.3504 12.0693 76.5155C10.349 79.6844 27.2992 126.249 29.4403 132.885C31.5777 139.516 39.0623 150.419 39.7065 162.83C40.3469 175.241 36.9174 188.114 36.9174 188.114C36.9174 188.114 43.4562 193.856 61.4304 190.862C79.4046 187.865 101.873 174.593 103.586 174.169C105.299 173.741 111.294 171.886 113.003 165.109C114.716 158.332 96.1202 142.804 93.7706 131.25C91.4172 119.695 98.239 107.187 95.0254 95.1003C94.3998 92.7209 94.061 90.0696 93.0035 87.8354C92.2252 86.1821 89.6001 84.1639 90.1251 82.1792L90.2628 81.5611C90.2405 80.943 89.4921 80.6786 88.8963 80.511C88.3042 80.3434 87.593 79.8631 87.809 79.2859L88.334 78.6529C89.0229 77.8076 88.2074 76.5118 87.2318 76.0277C86.2525 75.5399 85.0683 75.3947 84.2938 74.6238C84.8411 74.1919 85.3886 73.7637 85.936 73.3355L86.3567 72.7174C86.3455 72.3673 85.9396 72.1849 85.597 72.0993C83.1283 71.4625 80.5552 71.2354 78.0157 71.429C79.9073 69.0198 82.4916 67.2696 85.0349 65.5605C82.3538 65.1211 79.6615 64.7598 76.9619 64.4843C78.2093 63.7656 79.4567 63.0433 80.7079 62.3246L81.3707 61.6693L81.0803 60.7569C78.7269 57.6997 71.9238 58.6121 68.6097 58.5935C63.4524 58.5563 58.2653 58.7685 53.1788 59.6808C43.6685 61.3937 32.8251 64.3987 32.8251 64.3987Z" fill="#692B68"/>
<path d="M99.5905 161.639C99.5905 161.639 81.9439 70.6022 71.5623 59.1072C61.1844 47.6123 61.717 59.6807 61.717 59.6807C61.717 59.6807 69.3654 66.6104 71.905 80.9727C74.4482 95.3312 92.8804 167.503 92.8804 167.503L99.5905 161.639Z" fill="#171915"/>
<path d="M157.781 108.491L93.0224 185.411L90.4679 179.151L89.2056 171.965L154.824 98.8166L157.781 108.491Z" fill="#382926"/>
<path d="M177.807 91.3878C177.807 91.3878 186.539 89.0158 183.913 84.7932C181.284 80.5668 174.347 80.3732 172.221 81.6988C170.099 83.0207 153.852 91.1235 153.122 92.1773C152.396 93.2311 152.27 98.7495 152.016 99.0251L155.118 108.576C155.118 108.576 159.415 107.321 160.331 108.122C161.244 108.923 169.246 93.0635 170.262 92.7879C171.275 92.5124 173.275 99.2224 177.807 91.3878Z" fill="#382926"/>
<path d="M95.7997 178.533L99.4191 161.702L89.5737 158.123L10.7174 209.492L7.42938 229.484L17.4461 232.999L44.6215 220.949L39.8626 261.243L50.1399 270.396L60.1567 273.907L95.7997 178.533Z" fill="#871720"/>
<path d="M105.824 182.048L109.44 165.221L99.5907 161.639L20.7381 213.01L17.4465 232.999L54.6422 224.464L49.8796 264.758L60.157 273.907L105.824 182.048Z" fill="#EF2F3D"/>
<path d="M95.9674 167.504L45.5749 214.336C45.5749 214.336 57.5168 214.865 58.6674 220.186C59.8106 225.515 58.1237 239.933 58.1237 239.933L61.0952 263.425L101.311 184.994L95.9674 167.504Z" fill="#EFEDF3"/>
<path d="M161.456 110.245L96.7012 187.161L94.1431 180.905L92.8807 173.718L158.503 100.571L161.456 110.245Z" fill="#E0BF70"/>
<path d="M183.582 93.7223C183.582 93.7223 186.539 89.0156 183.913 84.793C181.284 80.5666 180.123 82.7077 178 84.0333C175.87 85.3552 159.628 93.458 158.901 94.5118C158.168 95.5693 158.041 101.084 157.792 101.363L160.897 110.911C160.897 110.911 165.195 109.66 166.107 110.46C167.019 111.261 175.021 95.398 176.034 95.1262C177.051 94.8469 179.05 101.557 183.582 93.7223Z" fill="#E0BF70"/>
<path d="M61.1884 229.864L56.2322 213.632L61.8065 207.258L66.7627 223.489L61.1884 229.864Z" fill="#110E0D"/>
<path d="M161.482 98.2433L161.266 97.5282L58.9619 214.478L59.1778 215.193L161.482 98.2433Z" fill="#040606"/>
<path d="M165.031 95.8376L164.815 95.1263L59.5537 216.421L59.7734 217.133L165.031 95.8376Z" fill="#040606"/>
<path d="M168.989 93.622L168.769 92.9071L60.1831 218.484L60.4028 219.199L168.989 93.622Z" fill="#040606"/>
<path d="M172.564 91.4064L172.344 90.6915L60.7155 220.227L60.9314 220.946L172.564 91.4064Z" fill="#040606"/>
<path d="M176.153 89.7086L175.934 88.9974L61.2593 222.015L61.4791 222.729L176.153 89.7086Z" fill="#040606"/>
<path d="M179.609 87.3588L179.393 86.6438L61.8066 223.798L62.0226 224.517L179.609 87.3588Z" fill="#040606"/>
<path d="M30.8182 91.9428C32.0656 91.3805 33.3801 90.956 34.7169 90.6768C33.138 93.5514 31.4698 96.374 29.716 99.1407C31.2688 98.4592 32.7023 97.5134 33.9423 96.3591C32.0507 98.1167 31.5219 103.62 31.2389 106.044C30.8517 109.362 31.0453 112.792 31.0453 116.124C31.0453 122.086 31.0453 128.048 31.0453 134.009C31.0453 150.84 28.7627 159.688 22.7713 162.399C16.7799 165.106 7.50798 154.553 7.36276 144.994C7.21754 135.435 5.36311 104.335 5.65356 98.2023C5.89188 93.0636 7.32925 87.8244 9.04214 83.0022C9.81294 80.8351 10.5837 78.4929 12.17 76.7912C12.844 76.0688 13.8904 75.2607 14.7058 74.7171C15.4357 74.2218 17.5879 73.8308 18.0348 73.3281C17.4167 74.0282 16.7725 74.7692 16.5677 75.6852C16.3591 76.5975 16.7725 77.7221 17.6736 77.979C19.3939 78.4705 20.3807 75.7374 22.1346 75.4022C21.7994 77.8934 21.7771 80.4255 22.0638 82.924C23.0767 81.9708 24.0038 80.9319 24.8268 79.8111C25.0278 81.8033 25.512 83.7656 26.2716 85.62C27.3961 88.383 29.2766 84.7636 30.3527 83.5124C29.6676 86.536 29.2952 89.6341 29.2505 92.736C29.7607 92.4492 30.2857 92.1848 30.8182 91.9428Z" fill="#F79368"/>
<path d="M9.06079 219.583C9.06079 219.583 27.1578 150.397 27.1578 130.144C27.1578 109.883 18.7721 73.8085 20.3956 70.7327C22.0229 67.657 29.4405 65.892 29.4405 65.892C29.4405 65.892 35.4318 127.072 35.4318 136.586C35.4318 146.104 17.4465 222.729 17.4465 222.729L9.06079 219.583Z" fill="#171915"/>
<path d="M23.2331 87.5002C23.2331 87.5002 24.3017 96.3812 23.8772 99.0585C23.449 101.732 22.1644 103.657 22.0564 106.119C21.9484 108.58 25.5865 130.512 25.162 138.004C24.7338 145.493 27.0834 160.365 21.1999 164.431C15.3165 168.498 5.87708 153.089 5.62387 149.559C5.36321 146.025 4.83068 138.541 6.22333 128.587C7.61226 118.638 8.14474 105.69 7.61225 102.481C7.07604 99.2707 1.99696 91.2984 1.9411 88.0886C1.88897 84.8825 -0.572335 64.0187 0.123993 62.3579C0.82032 60.6972 4.45464 61.7696 4.51049 63.5347C4.56635 65.2997 7.56016 81.4567 7.56016 81.4567C7.56016 81.4567 9.80925 78.5671 10.3417 78.0309C10.8779 77.4984 15.581 74.1806 16.4933 74.3407C17.4056 74.5008 18.504 75.7855 18.3327 76.6941C18.1652 77.6026 17.7258 78.6751 17.7258 78.6751L18.3327 79.8517C18.3327 79.8517 18.9025 79.6358 19.7589 80.0119C20.6117 80.388 22.4288 81.3487 22.4288 81.3487C22.4288 81.3487 27.7835 72.5236 28.4239 71.9874C29.0681 71.4512 32.2221 72.6316 31.3135 75.1451C30.4049 77.6585 24.0932 87.1799 23.2331 87.5002Z" fill="#FAB597"/>
<path d="M37.677 40.8502C37.677 40.8502 39.174 53.049 35.1115 60.5374C31.0452 68.0294 29.4403 68.0294 29.4403 68.8858C29.4403 69.7423 42.1716 80.4404 51.6967 81.617C61.2144 82.7937 67.958 77.763 68.6022 73.5925C69.2426 69.4183 65.7089 63.1067 65.0721 62.5705C64.4279 62.038 63.3593 58.8244 60.2575 57.4355C57.1519 56.0429 54.6906 36.0355 50.9483 38.7128C47.2022 41.3864 38.8723 37.5362 37.677 40.8502Z" fill="#F8A27D"/>
<path d="M152.806 131.086C152.806 131.086 146.814 127.66 145.6 128.446C144.386 129.232 144.174 130.017 144.174 130.017C144.174 130.017 141.962 129.399 141.322 129.708C140.678 130.017 140.253 131.086 140.253 131.086C140.253 131.086 138.823 130.944 138.399 132.155C137.971 133.369 137.829 133.726 137.829 133.726C137.829 133.726 136.544 134.366 136.47 135.789C136.399 137.219 140.536 141.568 140.536 141.568C140.536 141.568 138.399 142.495 137.755 143.355C137.11 144.208 137.11 144.208 137.11 144.208C137.11 144.208 139.11 145.634 141.821 144.208C144.528 142.782 144.528 142.782 144.528 142.782C144.528 142.782 146.885 142.57 147.525 141.855C148.17 141.144 148.81 140.216 148.81 140.216C148.81 140.216 150.877 139.572 151.234 138.719C151.592 137.859 152.519 136.15 152.519 136.15C152.519 136.15 153.874 136.292 154.232 135.078C154.589 133.868 154.723 132.103 152.806 131.086Z" fill="#FAB597"/>
<path d="M62.5736 10.8931C62.5736 10.8931 71.5625 16.1695 71.8455 24.3057C72.1322 32.4345 71.4173 47.4148 69.563 53.4062C67.7086 59.3976 64.2865 59.6807 61.7171 59.6807C59.1515 59.6807 54.8693 59.6806 50.8738 58.2582C46.882 56.8283 43.8845 52.2631 40.0342 48.1261C36.1802 43.9891 34.754 43.2778 34.471 36.2848C34.1843 29.2954 38.7495 13.3172 38.7495 13.3172C38.7495 13.3172 60.7006 9.58977 62.5736 10.8931Z" fill="#FAB597"/>
<path d="M62.6073 14.3153C62.6073 14.3153 57.9006 16.0283 54.903 19.0258C51.9092 22.0196 47.9509 28.4392 44.8491 31.5448C41.7435 34.6466 38.5375 37.7485 37.1448 39.1411C35.7522 40.5301 32.1625 42.4738 32.5833 42.943C33.0041 43.4084 37.9454 46.473 37.9454 46.473L37.6959 51.1388C37.6959 51.1388 27.9436 46.7374 26.1264 34.1104C24.3018 21.4872 26.6589 10.8933 33.9312 5.11412C41.2073 -0.661304 46.953 1.90435 46.953 1.90435C46.953 1.90435 48.8036 -0.877239 52.5496 0.407429C56.2956 1.6921 62.6074 3.51292 67.5301 7.89569C72.4528 12.2822 71.4846 21.8595 71.4846 21.8595C71.4846 21.8595 68.1072 11.4257 62.6073 14.3153Z" fill="#1C1011"/>
<path d="M40.4587 44.8642C40.4587 44.8642 39.7662 47.2176 36.9846 46.2569C34.1993 45.2925 30.2968 41.1182 30.241 38.1243C30.1889 35.1268 32.33 32.5612 33.8828 33.2538C35.4318 33.9502 37.0367 36.4003 37.7331 38.467C38.4257 40.5299 40.4066 44.2759 40.4587 44.8642Z" fill="#FAB597"/>
<defs>
<filter id="filter0_f_2_4300" x="5.05701" y="275.665" width="180.321" height="107.582" filterUnits="userSpaceOnUse" color-interpolation-filters="sRGB">
<feFlood flood-opacity="0" result="BackgroundImageFix"/>
<feBlend mode="normal" in="SourceGraphic" in2="BackgroundImageFix" result="shape"/>
<feGaussianBlur stdDeviation="2" result="effect1_foregroundBlur_2_4300"/>
</filter>
</defs>
</svg>
