<svg width="223" height="396" viewBox="0 0 223 396" fill="none" xmlns="http://www.w3.org/2000/svg">
<path d="M53.9496 330.798C83.8647 316.937 131.924 317.881 161.295 332.904C190.662 347.928 190.216 371.34 160.298 385.199C130.383 399.06 82.3261 398.116 52.9556 383.092C23.5884 368.069 24.0312 344.656 53.9496 330.798Z" fill="#E9E9E9"/>
<path d="M98.6763 322.6C98.6763 322.6 100.841 322.783 101.219 324.203C101.599 325.623 101.219 328.247 101.219 328.247C101.219 328.247 96.2258 331.269 88.3067 333.256C80.3875 335.246 68.512 336.996 65.6809 337.632C62.8564 338.269 56.351 337.153 53.9956 334.61C51.6369 332.066 52.1618 326.829 55.5309 326.782C58.8967 326.735 98.2991 323.135 98.2991 323.135L98.6763 322.6Z" fill="#BB2024"/>
<path d="M166.731 362.207C166.731 362.207 167.613 362.445 168.066 365.069C168.522 367.693 169.5 368.249 168.066 370.001C166.639 371.748 165.038 378.747 164.658 380.101C164.28 381.451 160.888 387.258 151.273 389.403C141.661 391.551 136.38 386.065 136.38 384.872C136.38 383.679 136.78 379.088 138.935 377.527C141.094 375.963 166.731 362.207 166.731 362.207Z" fill="#BB2024"/>
<path d="M82.1785 316.317C82.1785 316.317 78.0319 317.43 75.3911 318.545C72.7536 319.658 67.4719 322.362 64.0799 323.394C60.6878 324.43 55.2192 325.224 54.8452 328.246C54.4647 331.269 56.8234 333.497 62.2887 333.655C67.7574 333.812 73.413 332.86 79.541 331.587C85.6658 330.314 97.0721 327.61 98.6763 326.099C100.277 324.587 100.937 323.715 100.09 320.533C99.2405 317.352 102.649 313.295 97.9743 312.658C93.2995 312.022 82.1785 316.317 82.1785 316.317Z" fill="#070B0F"/>
<path d="M148.914 360.059C148.914 360.059 146.182 365.387 145.335 367.931C144.486 370.477 139.207 376.522 138.453 378.429C137.701 380.339 136.284 384.236 145.335 385.747C154.383 387.258 157.778 384.551 162.771 379.542C167.771 374.532 164.848 372.146 167.016 368.091C169.181 364.034 167.39 359.182 167.016 357.673C166.639 356.162 163.906 354.49 157.683 355.287C151.463 356.082 148.914 360.059 148.914 360.059Z" fill="#070B0F"/>
<path d="M159.848 309.506C159.848 309.506 165.383 315.993 165.881 324.203C166.386 332.409 167.016 352.664 167.016 353.829C167.016 354.994 167.571 359.758 167.571 359.758C167.571 359.758 166.37 362.099 161.289 363.372C156.207 364.645 147.72 362.456 148.094 361.698C148.475 360.937 131.14 316.259 131.14 316.259C131.14 316.259 153.566 302.611 159.848 309.506Z" fill="#18212A"/>
<path d="M105.431 273.557L106.874 282.22C106.874 282.22 107.439 295.187 106.874 300.067C106.31 304.944 101.284 318.73 101.284 318.73C101.284 318.73 99.2736 320.745 91.7316 320.955C84.1897 321.169 80.4204 317.033 80.4204 317.033L80.1579 285.223C80.1579 285.223 100.402 269.527 105.431 273.557Z" fill="#131B24"/>
<path d="M88.7759 209.193C88.7759 209.193 78.7867 218.576 77.4646 231.46C76.1459 244.344 79.5412 285.382 80.673 287.767C81.8015 290.153 91.525 290.79 97.9745 289.674C104.424 288.562 106.865 282.254 109.138 277.745C111.412 273.239 114.984 246.253 114.984 246.253C114.984 246.253 106.123 218.736 98.9586 215.553C91.794 212.373 88.7759 209.193 88.7759 209.193Z" fill="#18212A"/>
<path d="M154.947 231.036L158.343 233.156C158.343 233.156 162.112 238.883 159.599 254.684C157.086 270.482 155.374 284.269 157.706 296.992C160.039 309.716 163.998 310.195 158.53 317.668C153.064 325.146 135.343 330.233 127.801 309.558C120.262 288.88 107.442 265.655 106.123 263.43C104.801 261.202 96.508 249.909 98.2007 240.845C99.9001 231.778 107.252 217.463 107.252 217.463L154.947 231.036Z" fill="#222B35"/>
<path d="M82.9332 213.01C82.9332 213.01 89.5927 223.826 109.453 229.658C129.31 235.49 141.878 235.703 149.797 235.808C157.713 235.913 160.731 234.216 160.731 234.216C160.731 234.216 158.09 214.917 162.489 205.268C166.888 195.62 176.818 158.293 176.818 154.476C176.818 150.66 176.317 134.645 168.899 132.63C161.485 130.618 158.343 128.285 153.064 126.801C147.786 125.315 130.694 120.333 125.918 118.634C121.141 116.937 113.6 124.255 110.959 127.33C108.321 130.405 101.786 153.203 101.534 156.491C101.284 159.777 93.2407 187.773 93.2407 190.635C93.2407 193.499 83.1825 211.523 82.9332 213.01Z" fill="#0B131B"/>
<path d="M131.856 141.462L135.717 186.862L123.766 175.074L120.462 209.812L115.998 154.733L127.105 167.399L131.856 141.462Z" fill="#F89C20"/>
<path d="M160.731 138.252C160.731 138.252 161.738 149.176 165.881 153.311C170.031 157.446 174.306 158.188 174.306 158.188C174.306 158.188 182.474 156.173 186.243 141.008C190.016 125.847 188.884 109.517 190.016 103.682C191.145 97.8532 184.99 93.6101 184.99 93.6101C184.99 93.6101 171.665 93.8205 170.156 98.8053C168.65 103.79 166.888 113.865 167.141 118.952C167.39 124.045 160.357 135.501 160.731 138.252Z" fill="#F8A27D"/>
<path d="M160.321 131.493C160.321 131.493 158.72 138.65 159.474 143.66C160.229 148.67 165.507 157.258 167.863 159.01C170.221 160.759 173.745 159.182 176.129 158.578C178.514 157.975 184.357 150.261 185.584 147.795C186.808 145.329 188.976 129.425 188.976 129.425L188.13 125.899C188.13 125.899 187.752 132.367 183.416 136.898C179.082 141.434 170.221 139.525 170.221 139.525C170.221 139.525 166.54 132.287 166.731 128.55C166.921 124.811 166.393 123.112 166.393 123.112C166.393 123.112 161.83 129.821 160.321 131.493Z" fill="#19212A"/>
<path d="M170.156 98.8049C170.156 98.8049 172.353 91.8854 175.434 86.6377C178.514 81.3872 189.917 56.4162 191.525 51.9628C193.126 47.5094 193.88 45.9983 193.785 44.4068C193.69 42.8181 193.975 40.3243 194.1 37.6202C194.225 34.9161 197.115 28.29 197.302 27.1773C197.492 26.0647 199.441 15.7767 200.51 13.7618C201.576 11.7468 200.95 8.46154 203.65 9.04278C206.353 9.62679 205.474 11.8548 205.096 13.5487C204.719 15.2453 204.28 23.6761 204.28 23.6761C204.28 23.6761 206.638 21.21 207.74 21.4812C208.839 21.7497 211.11 22.7987 211.11 22.7987L211.503 23.4574L214.236 23.4851L215.938 24.5064L216.293 25.5222C216.293 25.5222 218.136 20.9415 218.491 20.2246C218.848 19.505 219.449 17.2908 220.518 17.4098C221.581 17.5288 223.284 17.587 222.539 19.923C221.791 22.259 220.374 26.0924 219.947 26.8701C219.521 27.6479 218.281 30.7921 218.281 30.7921C218.281 30.7921 217.605 34.1439 216.326 36.3609C215.053 38.5779 213.393 43.5737 211.602 44.8441C209.81 46.1173 208.679 47.2715 208.679 47.2715C208.679 47.2715 207.452 51.008 205.096 59.1204C202.741 67.2328 199.28 78.6056 196.439 86.1589C193.598 93.7177 189.917 100.872 188.976 101.67C188.034 102.464 183.133 104.93 177.573 103.576C172.009 102.226 170.156 98.8049 170.156 98.8049Z" fill="#F8A27D"/>
<path d="M207.36 28.5557C207.36 28.5557 211.192 27.8665 212.452 26.9116C213.705 25.9568 215.276 24.8967 214.902 23.4104C214.522 21.9269 210.562 23.4104 210.562 23.4104C210.562 23.4104 205.411 25.215 204.467 25.2676C203.525 25.3202 196.892 29.3999 196.439 29.7209C195.983 30.0392 194.458 35.5499 194.34 36.1145C194.218 36.6764 192.716 42.605 197.932 43.1365C203.148 43.6651 204.349 38.2042 204.503 36.8258C204.657 35.4475 203.65 31.7358 203.65 31.7358C203.65 31.7358 206.353 29.9866 207.36 28.5557Z" fill="#F8A27D"/>
<path d="M78.6913 14.5839C78.6913 14.5839 75.7717 12.2368 74.7809 11.8797C73.7902 11.5227 71.7628 11.841 71.5726 13.2332C71.3856 14.6254 72.373 15.619 72.373 15.619C72.373 15.619 74.4955 18.5612 75.1319 19.3168C75.7716 20.0724 75.7224 21.1851 75.7224 21.1851C75.7224 21.1851 74.4496 22.7765 74.3544 24.2075C74.2626 25.6384 74.7317 27.9052 74.7317 27.9052C74.7317 27.9052 78.8816 30.6094 82.7919 29.4552C86.7056 28.3038 84.9144 20.7449 84.9144 20.7449L81.6142 17.6478L78.6913 14.5839Z" fill="#F8A27D"/>
<path d="M84.8818 29.7405C84.8818 29.7405 87.457 22.9345 88.9037 21.7693C90.3471 20.604 90.3472 17.4737 91.6659 13.4466C92.988 9.41393 95.5009 3.21124 96.3177 1.462C97.1346 -0.287247 93.5522 0.615051 92.673 1.462C91.7938 2.31171 86.2629 12.702 85.8233 13.0729C85.3837 13.4466 84.1273 12.8625 84.1273 12.8625L80.2923 11.1106L77.8418 11.3236C77.8418 11.3236 78.1567 5.54456 77.8418 4.85537C77.5301 4.16619 75.2666 5.12105 75.2666 6.55199C75.2666 7.98294 75.2666 10.9528 75.2666 10.9528V12.5968L71.5498 17.0503V19.4886L74.2628 19.9647L74.1972 22.9345C74.1972 22.9345 72.1895 27.3354 72.3732 29.0846C72.5634 30.8338 74.0725 33.5905 74.0725 33.5905L75.5815 36.9312C75.5815 36.9312 78.2223 53.0757 80.8598 60.3134C83.4974 67.5512 89.8157 81.548 91.5085 84.0141C93.2078 86.4802 100.655 84.0141 104.424 82.5029C108.193 80.9917 108.666 79.0818 108.006 74.7862C107.347 70.4934 90.6653 45.3619 87.8342 37.9664C85.0064 30.5681 84.8818 29.7405 84.8818 29.7405Z" fill="#F8A27D"/>
<path d="M106.028 73.5158L108.062 75.1876C108.062 75.1876 111.776 87.5125 113.285 92.763C114.794 98.0108 118.094 108.509 118.284 109.702C118.468 110.895 115.643 117.892 114.324 120.994C113.002 124.094 105.651 123.959 104.237 123.112C102.823 122.268 102.351 122.373 100.468 118.384C98.5812 114.393 95.3761 104.93 95.3761 99.1234C95.3761 93.3166 91.0557 85.8241 90.954 83.0896C90.849 80.355 103.482 72.3229 106.028 73.5158Z" fill="#F8A27D"/>
<path d="M105.369 118.384C105.369 118.384 114.042 114.233 115.171 111.93C116.303 109.622 118.005 108.506 117.333 106.264C116.66 104.02 116.66 104.02 116.66 104.02C116.66 104.02 119.688 106.76 121.014 108.509C122.336 110.258 126.282 117.994 127.516 119.176C128.746 120.358 122.618 125.899 122.618 125.899C122.618 125.899 113.38 128.869 112.435 130.856C111.493 132.843 106.694 137.609 106.694 137.609C106.694 137.609 105.854 133.48 104.621 131.493C103.391 129.506 99.9002 124.036 98.8635 123.112C97.8269 122.187 96.8853 119.644 96.8853 119.644C96.8853 119.644 99.5983 121.587 101.731 120.815C103.86 120.04 105.369 118.384 105.369 118.384Z" fill="#19212A"/>
<path d="M102.541 109.065C102.541 109.065 95.9405 115.509 96.8853 119.644C97.8268 123.779 107.449 126.732 110.27 125.899C113.091 125.063 119.318 109.541 118.944 108.191C118.563 106.837 117.208 104.222 116.66 104.02C116.112 103.815 103.292 105.882 102.541 109.065Z" fill="#19212A"/>
<path d="M157.526 115.024C157.526 115.024 157.024 122.824 157.024 124.892C157.024 126.959 158.06 129.345 158.06 129.345C158.06 129.345 153.346 134.277 145.053 135.229C136.757 136.184 133.834 132.525 133.834 132.525C133.834 132.525 131.856 119.721 131.856 116.143C131.856 112.564 161.521 93.7816 157.526 115.024Z" fill="#F8A27D"/>
<path d="M155.938 128.869C155.938 128.869 151.178 134.808 153.064 141.462C154.947 148.113 166.846 214.955 167.669 218.135C168.496 221.316 172.642 223.704 172.642 223.704C172.642 223.704 162.161 162.121 161.288 159.81C160.416 157.499 155.233 138.412 155.938 136.821C156.646 135.229 158.06 130.618 158.06 130.618L155.938 126.04V128.869Z" fill="#3D1C14"/>
<path d="M131.856 124.415C131.856 124.415 112.268 134.91 107.875 139.206C103.482 143.502 66.5206 198.168 65.4643 199.876C64.408 201.586 67.2358 202.384 67.2358 202.384C67.2358 202.384 104.237 146.737 111.211 141.462C118.186 136.184 124.596 129.663 131.856 127.435C139.112 125.209 131.856 124.415 131.856 124.415Z" fill="#3D1C14"/>
<path d="M133.834 87.9883C133.834 87.9883 127.142 91.9656 126.2 98.9653C125.259 105.962 125.163 110.654 124.878 113.2C124.596 115.746 125.537 126.402 128.086 128.55C130.629 130.695 133.27 131.57 136.097 131.57C138.925 131.57 149.482 128.071 152.969 124.65C156.456 121.232 157.496 114.232 158.343 112.486C159.189 110.734 163.247 109.303 162.397 100.557C161.548 91.8051 157.306 89.1037 154.947 88.4671C152.595 87.8305 133.834 87.9883 133.834 87.9883Z" fill="#FAB597"/>
<path d="M125.334 89.4552C125.54 91.3567 125.777 93.8035 127.955 94.5536C129.713 95.1597 132.239 94.7002 134.119 95.1458C134.119 95.1458 140.152 96.5795 143.072 96.7373C145.994 96.8978 150.804 98.9653 151.178 100.953C151.555 102.94 152.969 106.043 153.346 106.759C153.723 107.474 154.665 110.097 154.665 110.097L154.288 115.024L156.555 115.586C156.555 115.586 157.87 108.985 158.529 108.985C159.189 108.985 159.753 114.141 159.756 114.155C159.714 113.773 162.331 111.769 162.656 111.395C164.415 109.372 166.455 108.345 168.948 106.926C167.744 106.934 166.54 106.942 165.336 106.95C167.37 105.002 169.408 103.053 171.441 101.108C170.264 100.709 169.086 100.311 167.908 99.912L167.285 99.5024C167.167 99.2228 167.433 98.9377 167.685 98.7328C168.453 98.1156 169.319 97.5926 170.257 97.1774L170.822 96.7623C170.966 96.4329 170.575 96.0952 170.175 96.0094C169.772 95.9236 169.342 95.9873 168.935 95.9153C167.84 95.7188 167.305 94.5729 167.551 93.6512C167.8 92.7295 168.594 91.9933 169.362 91.3041C167.908 91.0883 166.452 90.8696 164.999 90.651C165.189 88.708 165.379 86.765 165.573 84.822C164.516 84.7251 163.447 84.7666 162.41 84.9438C161.971 82.677 161.364 80.4351 160.603 78.2292C160.114 79.6408 159.445 81.0108 158.621 82.3061C158.182 80.7977 157.736 79.2891 157.293 77.7779C157.191 77.4292 156.984 77.0058 156.564 76.9919C156.207 76.9753 155.951 77.2631 155.764 77.5178C154.924 78.6719 154.088 79.8262 153.248 80.9803C152.237 79.1619 150.84 77.4957 149.144 76.0868C148.353 77.1801 147.563 78.2734 146.775 79.3639C146.555 79.6739 146.286 80.0088 145.87 80.0835C144.495 80.3326 144.216 77.7392 142.852 78.0188L142.143 78.4339C141.326 79.1425 140.506 79.8482 139.686 80.5568C139.204 80.1056 138.715 79.6573 138.229 79.2062C137.56 80.6786 136.888 82.1483 136.218 83.618C134.801 82.6354 133.017 82.0292 131.183 81.9074C130.327 81.8493 129.247 82.0293 129.021 82.7295C128.932 83.0091 129.008 83.308 128.978 83.5931C128.893 84.4179 127.925 85.0158 126.958 85.1265C125.987 85.2372 125.015 84.977 124.084 84.7196C124.655 85.9706 125.038 87.2825 125.235 88.6138C125.271 88.8767 125.301 89.1591 125.334 89.4552Z" fill="#1C1011"/>
<path d="M159.947 108.149C159.947 108.149 163.185 105.835 164.323 109.162C165.458 112.486 161.456 115.348 161.124 116.342C160.796 117.335 159.097 118.528 157.588 117.811C156.079 117.097 155.938 116.104 155.938 116.104C155.938 116.104 156.961 112.309 157.486 111.542C158.014 110.773 157.942 109.27 159.947 108.149Z" fill="#FAC0A6"/>
<path d="M116.634 251.03C113.419 249.843 111.018 247.917 107.73 246.823C104.594 245.777 101.137 245.121 97.9348 244.612C97.0884 244.476 96.1995 244.327 95.5237 243.87C94.569 243.222 95.1365 243.092 95.8025 242.605C96.3766 242.187 96.7932 241.642 97.3706 241.224L97.8922 240.889C100.077 239.561 102.905 238.658 105.595 238.434C108.534 238.191 111.09 240.444 114.19 239.638C118.54 238.506 117.241 233.067 113.425 230.1C109.607 227.131 104.824 225.124 103.728 223.009C103.728 223.009 98.7615 214.382 101.894 213.469C105.027 212.553 110.217 214.861 107.084 206.682C106.274 204.565 104.867 202.871 103.016 201.315C102.078 200.524 100.49 200.535 99.211 200.352C97.7052 200.136 96.1962 199.934 94.7035 199.671C92.0201 199.198 89.3464 198.517 87.0205 197.294C85.2425 196.355 83.4972 194.745 84.9144 193.012C85.1736 192.691 85.5049 192.417 85.8363 192.148C86.4137 191.672 87.0336 191.041 87.7488 190.718C88.4246 190.41 89.3005 190.203 90.0288 189.99C91.7904 189.466 93.6472 189.151 95.5171 189.126C99.0076 189.085 102.173 190.203 105.254 191.523C112.891 194.8 119.839 203.358 129.001 208.044C138.164 212.727 150.23 210.917 158.857 214.529C167.485 218.141 182.677 226.652 185.354 249.613C186.246 257.297 186.945 265.409 185.111 273.04C184.564 275.312 183.77 277.662 182.231 279.613C179.895 282.572 175.857 282.954 172.485 284.725C170.972 285.517 169.552 286.691 167.774 286.688L167.167 286.56L166.813 286.093C165.911 284.166 165.668 281.185 163.936 279.633C162.171 278.055 159.185 276.895 157.168 275.442C152.395 271.996 148.087 268.05 144.348 263.793C136.179 254.49 121.673 252.893 116.634 251.03Z" fill="#B26039"/>
<path d="M38.902 192.602L117.677 233.411L118.366 227.612L117.372 221.36L38.902 183.881V192.602Z" fill="#B26039"/>
<path d="M9.93511 184.36C8.73444 183.546 7.86183 182.444 7.1598 181.307C6.22813 179.801 4.5649 178.976 2.64908 178.331C2.27182 178.207 1.86829 178.079 1.63537 177.803L1.41232 177.127C1.39919 176.253 2.08482 175.445 2.97385 174.996C3.86615 174.545 4.92908 174.407 5.96572 174.393C7.13031 174.373 8.26863 174.265 9.384 174.246C10.5322 174.227 11.6443 174.747 12.7367 174.98C15.4333 175.555 35.3887 178.276 36.5106 178.968C37.6293 179.663 39.5616 184.194 39.9191 184.362C40.2734 184.531 39.7157 193.017 39.7157 193.017C39.7157 193.017 34.7294 193.034 34.0142 193.92C33.3023 194.805 19.6061 183.648 18.4383 183.67C17.2671 183.693 17.3163 189.729 9.93511 184.36Z" fill="#B26039"/>
<path d="M94.3919 226.826C94.3919 226.826 89.4318 218.199 92.5614 217.285C95.691 216.372 100.884 218.678 97.7544 210.502C94.6248 202.323 85.154 202.813 83.7795 197.188C82.4049 191.564 88.2836 192.065 95.9207 195.339C103.554 198.617 110.503 207.175 119.665 211.86C128.828 216.546 140.893 214.733 149.521 218.345C158.152 221.957 173.348 230.468 176.018 253.43C178.692 276.391 174.722 287.1 165.481 286.884C156.243 286.674 143.183 276.912 135.015 267.609C126.846 258.307 112.336 256.71 107.298 254.847C102.259 252.984 95.5401 249.267 94.9267 244.385C94.3165 239.505 100.504 244.587 104.854 243.455C109.207 242.323 107.908 236.884 104.089 233.917C100.271 230.95 95.4876 228.943 94.3919 226.826Z" fill="#BB2024"/>
<path d="M118.75 254.069C118.75 254.069 112.261 253.643 108.518 251.822C104.778 249.998 109.742 247.462 110.736 243.657C111.726 239.854 104.243 223.789 104.168 219.242C104.089 214.697 113.557 222.264 118.215 223.87C122.874 225.472 132.344 225.503 138.679 228.735C145.017 231.971 148.399 238.625 148.12 243.18C147.842 247.736 145.017 255.256 147.615 261.476C150.21 267.692 155.708 276.209 154.944 278.426C154.18 280.643 150.286 278.376 146.546 275.002C142.803 271.625 130.97 257.803 118.75 254.069Z" fill="white"/>
<path d="M32.4918 194.83L111.267 235.639L111.956 229.837L110.962 223.588L32.4918 186.106V194.83Z" fill="#271815"/>
<path d="M3.52803 186.585C3.52803 186.585 -1.15654 183.419 0.270493 179.281C1.69424 175.146 3.62646 176.632 6.32633 177.205C9.0262 177.781 28.9783 180.502 30.1003 181.196C31.2189 181.891 33.1512 186.422 33.5088 186.591C33.8631 186.757 33.3086 195.246 33.3086 195.246C33.3086 195.246 28.319 195.262 27.6038 196.145C26.892 197.031 13.1991 185.877 12.0279 185.899C10.8568 185.918 10.9092 191.958 3.52803 186.585Z" fill="#E0BF70"/>
<path d="M152.129 257.604V242.968L144.112 239.059V253.698L152.129 257.604Z" fill="#110E0D"/>
<path d="M28.5585 184.914V184.269L149.495 244.335V244.978L28.5585 184.914Z" fill="#040606"/>
<path d="M23.9887 183.793V183.15L149.495 246.087V246.729L23.9887 183.793Z" fill="#040606"/>
<path d="M19.0548 182.929V182.284L149.495 247.947V248.592L19.0548 182.929Z" fill="#040606"/>
<path d="M14.5244 181.971V181.326L149.495 249.519V250.164L14.5244 181.971Z" fill="#040606"/>
<path d="M10.1449 181.448V180.806L149.495 251.13V251.775L10.1449 181.448Z" fill="#040606"/>
<path d="M5.68993 180.349V179.704L149.495 252.741V253.385L5.68993 180.349Z" fill="#040606"/>
<path d="M168.601 276.585C166.652 281.675 158.077 278.169 155.252 271.089C154.606 269.467 154.262 267.842 154.488 266.375C155.403 260.316 161.662 252.201 166.626 254.991C170.038 256.906 171.301 269.544 168.601 276.585Z" fill="white"/>
</svg>
