<svg width="373" height="453" viewBox="0 0 373 453" fill="none" xmlns="http://www.w3.org/2000/svg">
<rect x="248" width="3.36265" height="3.36265" rx="1.34409" fill="black"/>
<rect x="261.451" width="3.36265" height="3.36265" rx="1.34409" fill="black"/>
<rect x="274.901" width="3.36265" height="3.36265" rx="1.34409" fill="black"/>
<rect x="288.352" width="3.36265" height="3.36265" rx="1.34409" fill="black"/>
<rect x="301.802" width="3.36265" height="3.36265" rx="1.34409" fill="black"/>
<rect x="315.253" width="3.36265" height="3.36265" rx="1.34409" fill="black"/>
<rect x="328.704" width="3.36265" height="3.36265" rx="1.34409" fill="black"/>
<rect x="342.154" width="3.36265" height="3.36265" rx="1.34409" fill="black"/>
<rect x="355.605" width="3.36265" height="3.36265" rx="1.34409" fill="black"/>
<rect x="369.055" width="3.36265" height="3.36265" rx="1.34409" fill="black"/>
<rect x="248" y="13.4506" width="3.36265" height="3.36265" rx="1.34409" fill="black"/>
<rect x="261.451" y="13.4506" width="3.36265" height="3.36265" rx="1.34409" fill="black"/>
<rect x="274.901" y="13.4506" width="3.36265" height="3.36265" rx="1.34409" fill="black"/>
<rect x="288.352" y="13.4506" width="3.36265" height="3.36265" rx="1.34409" fill="black"/>
<rect x="301.802" y="13.4506" width="3.36265" height="3.36265" rx="1.34409" fill="black"/>
<rect x="315.253" y="13.4506" width="3.36265" height="3.36265" rx="1.34409" fill="black"/>
<rect x="328.704" y="13.4506" width="3.36265" height="3.36265" rx="1.34409" fill="black"/>
<rect x="342.154" y="13.4506" width="3.36265" height="3.36265" rx="1.34409" fill="black"/>
<rect x="355.605" y="13.4506" width="3.36265" height="3.36265" rx="1.34409" fill="black"/>
<rect x="369.055" y="13.4506" width="3.36265" height="3.36265" rx="1.34409" fill="black"/>
<rect x="248" y="26.9012" width="3.36265" height="3.36265" rx="1.34409" fill="black"/>
<rect x="261.451" y="26.9012" width="3.36265" height="3.36265" rx="1.34409" fill="black"/>
<rect x="274.901" y="26.9012" width="3.36265" height="3.36265" rx="1.34409" fill="black"/>
<rect x="288.352" y="26.9012" width="3.36265" height="3.36265" rx="1.34409" fill="black"/>
<rect x="301.802" y="26.9012" width="3.36265" height="3.36265" rx="1.34409" fill="black"/>
<rect x="315.253" y="26.9012" width="3.36265" height="3.36265" rx="1.34409" fill="black"/>
<rect x="328.704" y="26.9012" width="3.36265" height="3.36265" rx="1.34409" fill="black"/>
<rect x="342.154" y="26.9012" width="3.36265" height="3.36265" rx="1.34409" fill="black"/>
<rect x="355.605" y="26.9012" width="3.36265" height="3.36265" rx="1.34409" fill="black"/>
<rect x="369.055" y="26.9012" width="3.36265" height="3.36265" rx="1.34409" fill="black"/>
<rect x="248" y="40.3518" width="3.36265" height="3.36265" rx="1.34409" fill="black"/>
<rect x="261.451" y="40.3518" width="3.36265" height="3.36265" rx="1.34409" fill="black"/>
<rect x="274.901" y="40.3518" width="3.36265" height="3.36265" rx="1.34409" fill="black"/>
<rect x="288.352" y="40.3518" width="3.36265" height="3.36265" rx="1.34409" fill="black"/>
<rect x="301.802" y="40.3518" width="3.36265" height="3.36265" rx="1.34409" fill="black"/>
<rect x="315.253" y="40.3518" width="3.36265" height="3.36265" rx="1.34409" fill="black"/>
<rect x="328.704" y="40.3518" width="3.36265" height="3.36265" rx="1.34409" fill="black"/>
<rect x="342.154" y="40.3518" width="3.36265" height="3.36265" rx="1.34409" fill="black"/>
<rect x="355.605" y="40.3518" width="3.36265" height="3.36265" rx="1.34409" fill="black"/>
<rect x="369.055" y="40.3518" width="3.36265" height="3.36265" rx="1.34409" fill="black"/>
<rect x="248" y="53.8024" width="3.36265" height="3.36265" rx="1.34409" fill="black"/>
<rect x="261.451" y="53.8024" width="3.36265" height="3.36265" rx="1.34409" fill="black"/>
<rect x="274.901" y="53.8024" width="3.36265" height="3.36265" rx="1.34409" fill="black"/>
<rect x="288.352" y="53.8024" width="3.36265" height="3.36265" rx="1.34409" fill="black"/>
<rect x="301.802" y="53.8024" width="3.36265" height="3.36265" rx="1.34409" fill="black"/>
<rect x="315.253" y="53.8024" width="3.36265" height="3.36265" rx="1.34409" fill="black"/>
<rect x="328.704" y="53.8024" width="3.36265" height="3.36265" rx="1.34409" fill="black"/>
<rect x="342.154" y="53.8024" width="3.36265" height="3.36265" rx="1.34409" fill="black"/>
<rect x="355.605" y="53.8024" width="3.36265" height="3.36265" rx="1.34409" fill="black"/>
<rect x="369.055" y="53.8024" width="3.36265" height="3.36265" rx="1.34409" fill="black"/>
<rect x="248" y="67.253" width="3.36265" height="3.36265" rx="1.34409" fill="black"/>
<rect x="261.451" y="67.253" width="3.36265" height="3.36265" rx="1.34409" fill="black"/>
<rect x="274.901" y="67.253" width="3.36265" height="3.36265" rx="1.34409" fill="black"/>
<rect x="288.352" y="67.253" width="3.36265" height="3.36265" rx="1.34409" fill="black"/>
<rect x="301.802" y="67.253" width="3.36265" height="3.36265" rx="1.34409" fill="black"/>
<rect x="315.253" y="67.253" width="3.36265" height="3.36265" rx="1.34409" fill="black"/>
<rect x="328.704" y="67.253" width="3.36265" height="3.36265" rx="1.34409" fill="black"/>
<rect x="342.154" y="67.253" width="3.36265" height="3.36265" rx="1.34409" fill="black"/>
<rect x="355.605" y="67.253" width="3.36265" height="3.36265" rx="1.34409" fill="black"/>
<rect x="369.055" y="67.253" width="3.36265" height="3.36265" rx="1.34409" fill="black"/>
<rect x="248" y="80.7036" width="3.36265" height="3.36265" rx="1.34409" fill="black"/>
<rect x="248" y="93.6762" width="3.36265" height="3.36265" rx="1.34409" fill="black"/>
<rect x="248" y="106.649" width="3.36265" height="3.36265" rx="1.34409" fill="black"/>
<rect x="248" y="119.621" width="3.36265" height="3.36265" rx="1.34409" fill="black"/>
<rect x="261.451" y="80.7036" width="3.36265" height="3.36265" rx="1.34409" fill="black"/>
<rect x="261.451" y="93.6762" width="3.36265" height="3.36265" rx="1.34409" fill="black"/>
<rect x="261.451" y="106.649" width="3.36265" height="3.36265" rx="1.34409" fill="black"/>
<rect x="261.451" y="119.621" width="3.36265" height="3.36265" rx="1.34409" fill="black"/>
<rect x="274.901" y="80.7036" width="3.36265" height="3.36265" rx="1.34409" fill="black"/>
<rect x="274.901" y="93.6762" width="3.36265" height="3.36265" rx="1.34409" fill="black"/>
<rect x="274.901" y="106.649" width="3.36265" height="3.36265" rx="1.34409" fill="black"/>
<rect x="274.901" y="119.621" width="3.36265" height="3.36265" rx="1.34409" fill="black"/>
<rect x="288.352" y="80.7036" width="3.36265" height="3.36265" rx="1.34409" fill="black"/>
<rect x="288.352" y="93.6762" width="3.36265" height="3.36265" rx="1.34409" fill="black"/>
<rect x="288.352" y="106.649" width="3.36265" height="3.36265" rx="1.34409" fill="black"/>
<rect x="288.352" y="119.621" width="3.36265" height="3.36265" rx="1.34409" fill="black"/>
<rect x="301.802" y="80.7036" width="3.36265" height="3.36265" rx="1.34409" fill="black"/>
<rect x="301.802" y="93.6762" width="3.36265" height="3.36265" rx="1.34409" fill="black"/>
<rect x="301.802" y="106.649" width="3.36265" height="3.36265" rx="1.34409" fill="black"/>
<rect x="301.802" y="119.621" width="3.36265" height="3.36265" rx="1.34409" fill="black"/>
<rect x="315.253" y="80.7036" width="3.36265" height="3.36265" rx="1.34409" fill="black"/>
<rect x="315.253" y="93.6762" width="3.36265" height="3.36265" rx="1.34409" fill="black"/>
<rect x="315.253" y="106.649" width="3.36265" height="3.36265" rx="1.34409" fill="black"/>
<rect x="315.253" y="119.621" width="3.36265" height="3.36265" rx="1.34409" fill="black"/>
<rect x="328.704" y="80.7036" width="3.36265" height="3.36265" rx="1.34409" fill="black"/>
<rect x="328.704" y="93.6762" width="3.36265" height="3.36265" rx="1.34409" fill="black"/>
<rect x="328.704" y="106.649" width="3.36265" height="3.36265" rx="1.34409" fill="black"/>
<rect x="328.704" y="119.621" width="3.36265" height="3.36265" rx="1.34409" fill="black"/>
<rect x="342.154" y="80.7036" width="3.36265" height="3.36265" rx="1.34409" fill="black"/>
<rect x="342.154" y="93.6762" width="3.36265" height="3.36265" rx="1.34409" fill="black"/>
<rect x="342.154" y="106.649" width="3.36265" height="3.36265" rx="1.34409" fill="black"/>
<rect x="342.154" y="119.621" width="3.36265" height="3.36265" rx="1.34409" fill="black"/>
<rect x="355.605" y="80.7036" width="3.36265" height="3.36265" rx="1.34409" fill="black"/>
<rect x="355.605" y="93.6762" width="3.36265" height="3.36265" rx="1.34409" fill="black"/>
<rect x="355.605" y="106.649" width="3.36265" height="3.36265" rx="1.34409" fill="black"/>
<rect x="355.605" y="119.621" width="3.36265" height="3.36265" rx="1.34409" fill="black"/>
<rect x="369.055" y="80.7036" width="3.36265" height="3.36265" rx="1.34409" fill="black"/>
<rect x="369.055" y="93.6762" width="3.36265" height="3.36265" rx="1.34409" fill="black"/>
<rect x="369.055" y="106.649" width="3.36265" height="3.36265" rx="1.34409" fill="black"/>
<rect x="369.055" y="119.621" width="3.36265" height="3.36265" rx="1.34409" fill="black"/>
<path d="M149.246 452.011C66.82 452.011 0 447.488 0 441.908C0 436.329 66.82 431.804 149.246 431.804C231.671 431.804 298.493 436.329 298.493 441.908C298.493 447.488 231.671 452.011 149.246 452.011Z" fill="#E2E3E2"/>
<path d="M211.485 294.162C151.991 294.162 103.762 245.932 103.762 186.44C103.762 126.944 151.991 78.7164 211.485 78.7164C270.98 78.7164 319.209 126.944 319.209 186.44C319.209 245.932 270.98 294.162 211.485 294.162Z" fill="url(#paint0_linear_2_2437)"/>
<path d="M279.442 169.481C268.7 165.118 267.538 165.26 255.519 157.98L255.517 157.947C255.362 157.841 252.638 156.027 251.673 155.216C248.808 152.783 245.335 148.951 242.786 143.883C242.479 143.276 242.182 142.583 241.913 141.792C239.982 136.581 238.647 127.771 237.685 118.852L237.703 118.834L253.16 103.593C253.16 103.593 255.311 102.161 256.477 100.997C257.389 116.161 255.022 108.94 259.286 126.896C260.183 130.772 261.409 134.658 263.021 138.385C263.516 139.561 264.077 140.729 264.668 141.864C268.882 144.203 278.862 152.513 283.926 154.831C289.225 157.259 296.207 160.543 296.207 160.543C292.552 170.141 283.556 171.309 279.442 169.481Z" fill="#F49477"/>
<path d="M260.875 125.215C260.875 125.215 260.29 125.85 259.286 126.896C256.01 130.266 248.315 137.927 241.913 141.792C240.659 142.556 239.443 143.169 238.314 143.579C238.314 143.579 234.975 126.337 237.685 118.852L239.177 110.581L248.951 89.7014C248.951 89.7014 258.202 94.7244 258.724 101.6C259.901 111.914 260.078 117.484 260.875 125.215Z" fill="#365DB3"/>
<path d="M254.26 380.092L249.964 392.907C246.864 393.689 241.971 393.27 238.552 392.123L241.156 377.384C241.156 377.384 249.91 376.594 254.26 380.092Z" fill="#F49477"/>
<path d="M235.986 409.617C235.98 410.651 235.964 411.674 235.927 412.684L282.974 419.589C283.123 418.559 283.135 417.527 283.016 416.518C282.657 413.519 281.146 410.727 278.727 408.783C272.155 403.508 261.83 399.984 261.83 399.984C259.197 396.669 250.81 390.524 250.81 390.524C242.823 392.472 238.783 390.462 238.783 390.462C235.838 396.849 236.042 403.395 235.986 409.617Z" fill="#EBAC1D"/>
<path d="M235.986 409.617C235.98 410.651 235.964 411.674 235.927 412.684L282.974 419.589C283.123 418.559 283.135 417.527 283.016 416.518L235.986 409.617Z" fill="#F3851F"/>
<path d="M240.139 380.166L253.848 386.106L286.755 290.134L236.94 225.695L195.351 232.549C214.615 259.28 233.688 283.575 252.021 298.36C246.08 310.699 242.881 342.232 240.139 380.166Z" fill="#1F1D28"/>
<path d="M166.556 407.054L163.234 420.299C160.28 421.526 155.379 421.82 151.83 421.182L153.52 406.294C153.52 406.294 161.744 404.223 166.556 407.054Z" fill="#F49477"/>
<path d="M151.83 438.864C151.976 439.887 152.108 440.902 152.217 441.908H199.767C199.767 440.869 199.628 439.846 199.364 438.864C198.574 435.948 196.673 433.405 193.997 431.835C186.731 427.567 176.003 425.58 176.003 425.58C172.918 422.682 163.725 417.82 163.725 417.82C156.107 420.907 151.819 419.506 151.819 419.506C149.832 426.252 150.983 432.701 151.83 438.864Z" fill="#EBAC1D"/>
<path d="M151.83 438.864C151.976 439.887 152.108 440.902 152.216 441.908H199.767C199.767 440.869 199.627 439.846 199.364 438.864H151.83Z" fill="#F3851F"/>
<path d="M151.83 410.034C154.772 378.352 161.009 329.56 169.815 315.81L167.435 212.694L207.584 222.21L201.68 317.62L167.2 412.589C159.434 413.767 154.717 411.66 151.83 410.034Z" fill="#2C3547"/>
<path d="M162.447 219.296C184.333 237.46 216.035 236.135 240.139 228.894L248.876 89.3676L234.117 84.3331L232.934 83.9295L229.575 82.7867L208.942 75.746L205.132 76.2601L200.328 76.9082L199.179 77.0633L177.78 79.9522L171.362 169.512L162.447 219.296Z" fill="#3A75C3"/>
<path d="M201.878 77.7968C206.946 83.2039 213.166 85.5262 220.54 84.7676C222.013 78.8327 224.403 74.7294 227.127 71.2953C226.316 69.1185 224.537 64.9569 221.733 61.6199C220.414 60.4015 218.996 59.154 217.554 57.9958C214.947 56.498 211.811 56.0149 208.139 57.5437C207.85 60.2444 207.475 62.7763 206.779 65.4847C205.867 69.0351 204.41 72.8843 201.878 77.7968Z" fill="#F49477"/>
<path d="M208.139 57.5437C207.85 60.2444 207.475 62.7763 206.779 65.4847C207.92 71.3846 211.216 79.6592 220.54 84.7676C222.013 78.8327 224.403 74.7294 227.127 71.2953C226.316 69.1185 224.537 64.9569 221.733 61.6199C220.414 60.4015 218.996 59.154 217.554 57.9958C214.947 56.498 211.811 56.0149 208.139 57.5437Z" fill="#F36457"/>
<path d="M248.127 51.0114C248.127 51.0114 253.955 48.6367 255.136 53.1455C256.318 57.6524 248.523 69.6385 241.169 65.4866C241.169 65.4866 242.985 57.4254 248.127 51.0114Z" fill="#F36457"/>
<path d="M213.524 27.742L213.497 27.7995L213.549 27.7481L213.524 27.742Z" fill="#F49477"/>
<path d="M207.875 47.3736C207.805 48.039 207.747 48.7006 207.706 49.3583C207.694 49.5368 207.685 49.7114 207.675 49.8899C207.64 50.5495 207.617 51.2053 207.607 51.8572C207.431 64.9802 212.847 76.0758 225.757 77.4028C242.628 79.1373 253.856 49.985 254.673 47.8023C254.702 47.8082 254.783 47.5928 254.88 47.2901C255.455 45.4877 255.689 43.5942 255.55 41.7065C255.173 36.5787 252.839 27.3631 241.552 22.3789C225.937 15.4798 218.043 20.5008 214.828 25.0504L213.499 27.7996C210.502 34.008 208.558 40.8276 207.875 47.3736Z" fill="#F49477"/>
<path d="M214.852 35.4263C214.852 35.4263 210.288 29.7164 206.641 32.615C202.995 35.5155 202.053 49.7833 210.426 50.8658C210.426 50.8658 215.125 43.6427 214.852 35.4263Z" fill="#F49477"/>
<path d="M207.675 49.8899C207.64 50.5495 207.617 51.2053 207.607 51.8572C208.69 52.2937 210.339 52.4489 212.172 50.8503C212.172 50.8503 209.161 51.1335 207.675 49.8899Z" fill="#F36457"/>
<path d="M222.141 31.7924C220.086 34.1399 219.595 40.1931 217.065 42.7638L214.243 42.24C214.243 42.24 216.767 36.435 211.486 32.4617C211.486 32.4617 214.116 19.8295 219.11 17.2957C224.104 14.7638 261.483 19.0244 255.406 45.0667C255.406 45.0667 251.73 45.1811 249.929 41.3416C248.131 37.5021 243.744 35.141 241.558 35.4592C239.373 35.7793 232.193 36.4661 229.572 33.8023C226.95 31.1405 223.73 29.9784 222.141 31.7924Z" fill="#2C3547"/>
<path d="M211.839 22.5088C211.839 22.5088 213.177 16.834 218.61 10.1444C230.148 -4.05153 257.42 8.08975 258.06 28.8239C258.06 28.8239 221.881 17.1153 211.839 22.5088Z" fill="#F03941"/>
<path d="M211.486 32.4617C211.486 32.4617 226.782 20.4873 256.636 40.6025C256.636 40.6025 259.376 34.3552 258.06 28.8239C258.06 28.8239 227.988 13.883 211.839 22.5088C211.839 22.5088 208.119 29.4972 211.486 32.4617Z" fill="#D32E36"/>
<path d="M236.591 73.3092C233.38 74.9059 230.803 76.1651 227.891 72.4187C224.971 68.6704 221.235 71.7998 216.716 69.8325C215.094 69.1282 214.285 66.742 214.004 63.7871C215.403 63.4903 217.391 61.7287 222.453 62.2311C223.429 62.3282 226.805 65.6244 229.218 66.4878C232.588 67.7004 233.524 65.8825 236.833 68.003C238.492 69.0662 239.142 70.2089 239.375 71.08C238.25 72.1704 237.278 72.9697 236.591 73.3092ZM255.402 45.0668L254.302 44.2365C254.302 44.2365 252.49 50.7804 250.884 55.4561C250.028 57.9667 246.897 62.4678 243.68 66.3442C241.532 61.2766 236.172 63.37 232.152 62.3087C228.169 61.263 225.759 56.4844 221.697 56.4902C217.894 56.4961 215.544 55.6424 214.314 55.0022C214.687 52.3811 215.249 50.1033 215.814 48.8791C217.636 44.9174 219.205 38.8739 219.205 38.8739L214.244 42.2401C214.244 42.2401 205.892 65.7447 206.732 70.2264C207.57 74.712 210.327 74.9875 210.217 81.9816C210.104 88.9816 222.331 94.6895 225.969 91.3137C229.606 87.9378 231.791 88.2172 235.419 85.1479C239.049 82.0767 240.578 77.2128 242.429 73.2705C244.282 69.3223 248.953 62.4717 251.433 57.245C253.91 52.0183 255.402 45.0668 255.402 45.0668Z" fill="#2C3547"/>
<path d="M43.8523 322.837C39.5416 302.074 40.7359 288.574 47.7235 279.064C55.1111 269.008 69.4787 263.242 92.9397 260.914C128.361 257.402 149.429 232.456 149.636 232.206L150.765 233.141C150.552 233.397 129.123 258.799 93.0852 262.373C70.0668 264.656 56.028 270.236 48.9042 279.931C42.185 289.079 41.0694 302.219 45.2869 322.54L43.8523 322.837Z" fill="#1F1D28"/>
<path d="M148.876 234.765L148.002 233.762C147.376 233.042 147.452 231.95 148.171 231.323L153.58 226.614C154.3 225.988 155.394 226.063 156.021 226.783L156.894 227.786C157.521 228.506 157.445 229.598 156.723 230.227L151.314 234.934C150.594 235.562 149.502 235.486 148.876 234.765Z" fill="#2C3547"/>
<path d="M279.937 204.347C276.521 218.718 267.972 220.765 254.067 221.948C237.701 223.339 227.882 232.962 216.349 254.878C204.817 276.794 185.629 269.778 173.265 252.529L158.526 231.961C156.194 228.712 154.287 225.347 152.888 222.005C146.864 207.601 150.284 193.551 170.138 190.404C194.595 186.522 206.864 180.313 213.437 165.262C219.027 152.472 236.632 131.711 246.138 134.278C246.482 134.373 246.806 134.476 247.106 134.59C252.876 136.773 250.76 142.644 248.752 148.493C247.161 153.103 247.194 158.192 248.721 162.902C249.753 166.082 251.474 169.089 253.837 171.654C256.727 174.792 257.791 177.413 262.266 177.362C268.106 177.292 272.221 179.853 275.031 183.472C280.137 190.049 280.94 200.128 279.937 204.347Z" fill="#D32E36"/>
<path d="M276.317 197.394C272.902 211.766 264.352 213.813 250.453 215.001C234.086 216.388 224.263 226.009 212.731 247.927C201.203 269.842 182.011 262.827 169.647 245.577L154.906 225.016C154.194 224.022 153.518 223.019 152.888 222.005C146.864 207.601 150.284 193.551 170.138 190.404C194.595 186.522 206.864 180.313 213.437 165.262C219.027 152.472 236.632 131.711 246.138 134.278C246.482 134.373 246.806 134.476 247.106 134.59C246.802 136.742 245.956 139.142 245.131 141.542C242.716 148.569 244.053 156.704 248.72 162.902C249.753 166.082 251.474 169.089 253.837 171.654C256.727 174.791 257.791 177.413 262.266 177.362C268.106 177.292 272.221 179.853 275.031 183.472C276.845 188.857 277.004 194.501 276.317 197.394Z" fill="#F03941"/>
<path d="M242.019 208.486L222.143 180.756L231.48 174.064L251.355 201.794L242.019 208.486Z" fill="#2C3547"/>
<path d="M214.632 228.116L194.756 200.386L208.901 190.247L228.778 217.979L214.632 228.116Z" fill="#2C3547"/>
<path d="M208.828 232.433L188.953 204.702L191.962 202.545L211.839 230.275L208.828 232.433Z" fill="#2C3547"/>
<path d="M198.626 239.745L178.752 212.015L183.872 208.344L203.746 236.074L198.626 239.745Z" fill="#2C3547"/>
<path d="M245.197 193.642L344.58 122.408L335.954 110.375L236.573 181.607L245.197 193.642Z" fill="#2C3547"/>
<path d="M329.296 141.109C323.016 148.123 317.876 139.776 317.876 139.776L314.4 134.934L310.929 130.083C310.929 130.083 304.678 122.536 313.336 118.842C321.995 115.148 324.213 116.487 327.963 110.03C331.628 103.715 339.41 90.8325 352.285 107.78C364.197 125.415 349.497 128.646 342.339 130.089C335.019 131.565 335.574 134.095 329.296 141.109Z" fill="#2C3547"/>
<path d="M186.561 222.905L186.262 222.49L342.803 110.292L343.1 110.705L186.561 222.905Z" fill="white"/>
<path d="M188.142 225.115C240.752 187.203 291.958 150.501 344.683 112.913L344.978 113.328C292.255 150.918 241.051 187.618 188.443 225.528L188.142 225.115Z" fill="white"/>
<path d="M190.573 228.508L190.28 228.091C243.135 190.524 294.337 153.825 346.815 115.895L347.118 116.306C294.636 154.238 243.43 190.939 190.573 228.508Z" fill="white"/>
<path d="M333.83 107.192C331.94 108.548 329.308 108.113 327.953 106.224C326.599 104.332 327.032 101.699 328.924 100.345C330.813 98.9908 333.444 99.4254 334.8 101.315C336.154 103.207 335.722 105.837 333.83 107.192Z" fill="#2C3547"/>
<path d="M319.473 119.319C317.581 120.674 314.951 120.239 313.594 118.349C312.24 116.458 312.675 113.827 314.565 112.473C316.454 111.117 319.087 111.551 320.441 113.441C321.797 115.332 321.363 117.963 319.473 119.319Z" fill="#2C3547"/>
<path d="M346.596 125.002C344.706 126.358 344.272 128.989 345.626 130.881C346.98 132.77 349.613 133.205 351.503 131.851C353.394 130.495 353.829 127.864 352.473 125.972C351.119 124.082 348.488 123.648 346.596 125.002Z" fill="#2C3547"/>
<path d="M330.499 134.705C328.609 136.059 328.175 138.69 329.531 140.581C330.885 142.473 333.516 142.905 335.407 141.551C337.297 140.195 337.732 137.564 336.378 135.675C335.021 133.783 332.391 133.35 330.499 134.705Z" fill="#2C3547"/>
<path d="M199.036 248.716C197.761 249.632 195.986 249.339 195.072 248.062C194.156 246.788 194.449 245.013 195.726 244.097C197.003 243.183 198.778 243.476 199.692 244.751C200.605 246.027 200.312 247.802 199.036 248.716Z" fill="white"/>
<path d="M239.059 150.93C237.784 151.844 236.009 151.551 235.093 150.276C234.179 148.999 234.472 147.224 235.747 146.31C237.023 145.395 238.799 145.69 239.714 146.964C240.628 148.241 240.335 150.016 239.059 150.93Z" fill="white"/>
<path d="M196.298 257.526C195.022 258.44 193.246 258.147 192.333 256.871C191.419 255.596 191.712 253.821 192.986 252.907C194.263 251.991 196.038 252.284 196.952 253.561C197.866 254.837 197.575 256.611 196.298 257.526Z" fill="white"/>
<path d="M188.611 251.681C187.337 252.596 185.562 252.302 184.646 251.027C183.732 249.752 184.025 247.975 185.302 247.061C186.578 246.148 188.353 246.44 189.267 247.715C190.181 248.992 189.888 250.767 188.611 251.681Z" fill="white"/>
<path d="M177.675 80.0803C177.675 80.0803 156.537 113.654 154.989 157.938C154.989 157.938 159.766 188.956 175.818 211.413C179.208 211.148 183.936 209.444 186.848 207.052C186.848 207.052 172.014 173.142 172.949 155.904L190.672 110.393C190.672 110.393 185.554 91.9015 177.675 80.0803Z" fill="#F49477"/>
<path d="M180.185 201.757C180.185 201.757 184.087 200.077 187.488 203.304C190.891 206.53 194.267 208.422 195.536 209.599C196.805 210.775 195.32 214.535 190.059 209.607C190.059 209.607 194.04 218.565 197.914 223.927C201.789 229.29 187.828 235.523 182.795 231.257C177.762 226.991 164.639 205.108 180.185 201.757Z" fill="#F49477"/>
<path d="M177.675 80.0803C177.675 80.0803 160.282 103.214 158.217 123.491C158.217 123.491 174.126 134.879 183.814 136.297L190.672 110.393C190.672 110.393 192.891 88.0542 177.675 80.0803Z" fill="#365DB3"/>
<path d="M284.591 172.091C278.272 170.919 275.671 166.651 279.39 159.692C283.103 152.723 290.81 149.94 290.81 149.94C290.81 149.94 294.013 146.231 295.898 146.658C297.744 147.079 297.548 149.836 293.914 152.513C295.73 154.347 297.604 156.942 297.214 159.66C296.5 164.734 290.908 173.271 284.591 172.091Z" fill="#F49477"/>
<path d="M115.616 440.281H32.7822C27.7045 440.281 23.5878 436.166 23.5878 431.087V335.021C23.5878 329.942 27.7045 325.825 32.7822 325.825H115.616C120.695 325.825 124.812 329.942 124.812 335.021V431.087C124.812 436.166 120.695 440.281 115.616 440.281Z" fill="#2C3547"/>
<path d="M50.2307 325.825H38.9081V324.956C38.9081 323.704 39.923 322.69 41.1741 322.69H47.9646C49.2158 322.69 50.2307 323.704 50.2307 324.956V325.825Z" fill="#1F1D28"/>
<path d="M68.2123 325.825H56.8899V324.956C56.8899 323.704 57.9046 322.69 59.1566 322.69H65.9465C67.1984 322.69 68.2123 323.704 68.2123 324.956V325.825Z" fill="#1F1D28"/>
<path d="M109.491 325.825H98.1685V324.956C98.1685 323.704 99.1832 322.69 100.435 322.69H107.225C108.476 322.69 109.491 323.704 109.491 324.956V325.825Z" fill="#1F1D28"/>
<path d="M103.139 426.217H45.2597C42.3608 426.217 40.0115 423.867 40.0115 420.969V366.197C40.0115 363.297 42.3608 360.949 45.2597 360.949H103.139C106.038 360.949 108.389 363.297 108.389 366.197V420.969C108.389 423.867 106.038 426.217 103.139 426.217Z" fill="#1F1D28"/>
<path d="M107.11 348.468H41.2906C40.5836 348.468 40.0115 347.896 40.0115 347.189V339.584C40.0115 338.878 40.5836 338.306 41.2906 338.306H107.11C107.815 338.306 108.389 338.878 108.389 339.584V347.189C108.389 347.896 107.815 348.468 107.11 348.468Z" fill="#3A4E60"/>
<path d="M36.348 428.991C36.348 430.524 35.1052 431.767 33.5734 431.767C32.0411 431.767 30.7975 430.524 30.7975 428.991C30.7975 427.46 32.0411 426.217 33.5734 426.217C35.1052 426.217 36.348 427.46 36.348 428.991Z" fill="#3A4E60"/>
<path d="M117.601 428.991C117.601 430.524 116.359 431.767 114.826 431.767C113.294 431.767 112.052 430.524 112.052 428.991C112.052 427.46 113.294 426.217 114.826 426.217C116.359 426.217 117.601 427.46 117.601 428.991Z" fill="#3A4E60"/>
<path d="M36.348 360.949C36.348 362.481 35.1052 363.723 33.5734 363.723C32.0411 363.723 30.7975 362.481 30.7975 360.949C30.7975 359.414 32.0411 358.172 33.5734 358.172C35.1052 358.172 36.348 359.414 36.348 360.949Z" fill="#3A4E60"/>
<path d="M117.601 360.949C117.601 362.481 116.359 363.723 114.826 363.723C113.294 363.723 112.052 362.481 112.052 360.949C112.052 359.414 113.294 358.172 114.826 358.172C116.359 358.172 117.601 359.414 117.601 360.949Z" fill="#3A4E60"/>
<defs>
<linearGradient id="paint0_linear_2_2437" x1="79.2038" y1="335.55" x2="273.471" y2="86.0761" gradientUnits="userSpaceOnUse">
<stop offset="0.00687781" stop-color="#1C6FEC"/>
<stop offset="1" stop-color="#F30F61"/>
</linearGradient>
</defs>
</svg>
