<svg width="300" height="231" viewBox="0 0 300 231" fill="none" xmlns="http://www.w3.org/2000/svg">
<path d="M25.837 128.608H24.247V91.5085H25.837V128.608ZM41.0766 127.018H61.5346V100.094L49.6096 112.019L37.6846 100.094V128.608L36.0946 128.555V97.8685H37.6846L49.6096 109.793L61.5346 97.8685H63.1246V128.608L41.0766 128.555V127.018ZM86.3489 117.16L85.5539 115.782L88.5219 114.086C90.9599 112.744 92.1789 110.606 92.1789 107.673C92.1789 102.197 88.0096 99.4585 79.6709 99.4585H74.7949V139.208H73.2049V97.8685H79.6709C84.3349 97.8685 87.8506 98.7341 90.2179 100.465C92.5853 102.161 93.7689 104.564 93.7689 107.673C93.7689 111.207 92.2849 113.804 89.3169 115.464L86.3489 117.16ZM114.19 113.185L121.398 128.608H119.649L112.229 112.708C112.299 112.673 112.6 112.532 113.13 112.284C113.695 112.002 114.084 111.807 114.296 111.701C114.508 111.56 114.861 111.33 115.356 111.012C115.85 110.694 116.221 110.394 116.469 110.111C116.716 109.793 116.981 109.44 117.264 109.051C117.582 108.627 117.811 108.168 117.953 107.673C118.094 107.143 118.165 106.578 118.165 105.977C118.165 103.751 117.105 102.108 114.985 101.048C112.865 99.9885 110.232 99.4585 107.088 99.4585H102.848V128.608H101.258V97.8685H107.088C111.257 97.8685 114.402 98.5928 116.522 100.041C118.677 101.49 119.755 103.469 119.755 105.977C119.755 107.603 119.207 109.051 118.112 110.323C117.016 111.56 115.709 112.514 114.19 113.185ZM144.062 99.5115C142.86 99.1228 141.376 98.9285 139.61 98.9285C137.843 98.9285 136.359 99.1228 135.158 99.5115C133.956 99.8648 132.843 100.554 131.819 101.578C130.829 102.568 130.087 104.034 129.593 105.977C129.098 107.885 128.851 110.306 128.851 113.238C128.851 116.171 129.098 118.609 129.593 120.552C130.087 122.46 130.829 123.927 131.819 124.951C132.843 125.941 133.956 126.63 135.158 127.018C136.359 127.372 137.843 127.548 139.61 127.548C141.376 127.548 142.86 127.372 144.062 127.018C145.263 126.63 146.358 125.941 147.348 124.951C148.372 123.927 149.132 122.46 149.627 120.552C150.121 118.609 150.369 116.171 150.369 113.238C150.369 110.306 150.121 107.885 149.627 105.977C149.132 104.034 148.372 102.568 147.348 101.578C146.358 100.554 145.263 99.8648 144.062 99.5115ZM149.097 125.375C147.189 127.884 144.026 129.138 139.61 129.138C135.193 129.138 132.031 127.884 130.123 125.375C128.215 122.867 127.261 118.821 127.261 113.238C127.261 107.656 128.215 103.61 130.123 101.101C132.031 98.5928 135.193 97.3385 139.61 97.3385C144.026 97.3385 147.189 98.5928 149.097 101.101C151.005 103.61 151.959 107.656 151.959 113.238C151.959 118.821 151.005 122.867 149.097 125.375ZM183.146 97.8685L169.896 129.138L156.646 97.8685H158.342L169.896 125.057L181.45 97.8685H183.146ZM189.142 97.8685H190.732V128.608H189.142V97.8685ZM208.897 97.2325C213.278 97.2325 216.388 98.2041 218.225 100.147L217.165 101.313C215.469 99.6528 212.784 98.8225 209.109 98.8225C203.597 98.8225 200.841 101.013 200.841 105.394C200.841 107.09 201.512 108.451 202.855 109.475C204.198 110.465 205.823 111.224 207.731 111.754C209.674 112.284 211.6 112.85 213.508 113.45C215.451 114.016 217.094 114.952 218.437 116.259C219.78 117.531 220.451 119.21 220.451 121.294C220.451 123.732 219.444 125.676 217.43 127.124C215.416 128.573 212.501 129.297 208.685 129.297C206.812 129.297 204.957 129.05 203.12 128.555C201.318 128.061 199.975 127.336 199.092 126.382L200.152 125.216C201.954 126.877 204.728 127.707 208.473 127.707C211.9 127.707 214.48 127.071 216.211 125.799C217.978 124.527 218.861 123.043 218.861 121.347C218.861 119.581 218.19 118.15 216.847 117.054C215.504 115.959 213.861 115.146 211.918 114.616C210.01 114.051 208.084 113.486 206.141 112.92C204.233 112.32 202.608 111.401 201.265 110.164C199.922 108.928 199.251 107.302 199.251 105.288C199.251 102.568 200.152 100.554 201.954 99.2465C203.791 97.9038 206.106 97.2325 208.897 97.2325ZM248.732 125.481C246.788 127.919 243.608 129.138 239.192 129.138C234.775 129.138 231.613 127.884 229.705 125.375C227.797 122.867 226.843 118.821 226.843 113.238C226.843 107.656 227.797 103.61 229.705 101.101C231.613 98.5928 234.775 97.3385 239.192 97.3385C244.315 97.3385 247.795 99.0168 249.633 102.373L236.648 113.238H234.157L247.566 102.055C246.011 99.9708 243.22 98.9285 239.192 98.9285C237.425 98.9285 235.941 99.1228 234.74 99.5115C233.538 99.8648 232.425 100.554 231.401 101.578C230.411 102.568 229.669 104.034 229.175 105.977C228.68 107.885 228.433 110.306 228.433 113.238C228.433 116.171 228.68 118.609 229.175 120.552C229.669 122.46 230.411 123.927 231.401 124.951C232.425 125.941 233.538 126.63 234.74 127.018C235.941 127.372 237.425 127.548 239.192 127.548C243.22 127.548 246.011 126.506 247.566 124.421L248.732 125.481ZM270.136 113.185L277.344 128.608H275.595L268.175 112.708C268.246 112.673 268.546 112.532 269.076 112.284C269.641 112.002 270.03 111.807 270.242 111.701C270.454 111.56 270.807 111.33 271.302 111.012C271.797 110.694 272.168 110.394 272.415 110.111C272.662 109.793 272.927 109.44 273.21 109.051C273.528 108.627 273.758 108.168 273.899 107.673C274.04 107.143 274.111 106.578 274.111 105.977C274.111 103.751 273.051 102.108 270.931 101.048C268.811 99.9885 266.179 99.4585 263.034 99.4585H258.794V128.608H257.204V97.8685H263.034C267.203 97.8685 270.348 98.5928 272.468 100.041C274.623 101.49 275.701 103.469 275.701 105.977C275.701 107.603 275.153 109.051 274.058 110.323C272.963 111.56 271.655 112.514 270.136 113.185Z" fill="black"/>
<path d="M75 111.774V111.774C96.3042 93.936 127.331 93.936 148.635 111.774V111.774V111.774C169.939 129.612 200.966 129.612 222.27 111.774V111.774" stroke="url(#paint0_linear_5_8)" stroke-opacity="0.5" stroke-width="2" stroke-linecap="round" stroke-linejoin="round"/>
<path d="M75 104.105V104.105C96.3042 86.2669 127.331 86.2669 148.635 104.105V104.105V104.105C169.939 121.943 200.966 121.943 222.27 104.105V104.105" stroke="url(#paint1_linear_5_8)" stroke-opacity="0.5" stroke-width="2" stroke-linecap="round" stroke-linejoin="round"/>
<path d="M75 96.4357V96.4357C96.3042 78.5978 127.331 78.5978 148.635 96.4357V96.4357V96.4357C169.939 114.274 200.966 114.274 222.27 96.4357V96.4357" stroke="url(#paint2_linear_5_8)" stroke-opacity="0.5" stroke-width="2" stroke-linecap="round" stroke-linejoin="round"/>
<path d="M75 119.443V119.443C96.3042 101.605 127.331 101.605 148.635 119.443V119.443V119.443C169.939 137.281 200.966 137.281 222.27 119.443V119.443" stroke="url(#paint3_linear_5_8)" stroke-opacity="0.5" stroke-width="2" stroke-linecap="round" stroke-linejoin="round"/>
<path d="M75 127.112V127.112C96.3042 109.274 127.331 109.274 148.635 127.112V127.112V127.112C169.939 144.95 200.966 144.95 222.27 127.112V127.112" stroke="url(#paint4_linear_5_8)" stroke-opacity="0.5" stroke-width="2" stroke-linecap="round" stroke-linejoin="round"/>
<path d="M75 134.781V134.781C96.3042 116.943 127.331 116.943 148.635 134.781V134.781V134.781C169.939 152.619 200.966 152.619 222.27 134.781V134.781" stroke="url(#paint5_linear_5_8)" stroke-opacity="0.5" stroke-width="2" stroke-linecap="round" stroke-linejoin="round"/>
<defs>
<linearGradient id="paint0_linear_5_8" x1="58.2132" y1="69.1026" x2="92.0092" y2="172.769" gradientUnits="userSpaceOnUse">
<stop offset="0.00687781" stop-color="#1C6FEC"/>
<stop offset="1" stop-color="#F30F61"/>
</linearGradient>
<linearGradient id="paint1_linear_5_8" x1="58.2132" y1="61.4334" x2="92.0092" y2="165.099" gradientUnits="userSpaceOnUse">
<stop offset="0.00687781" stop-color="#1C6FEC"/>
<stop offset="1" stop-color="#F30F61"/>
</linearGradient>
<linearGradient id="paint2_linear_5_8" x1="58.2132" y1="53.7643" x2="92.0092" y2="157.43" gradientUnits="userSpaceOnUse">
<stop offset="0.00687781" stop-color="#1C6FEC"/>
<stop offset="1" stop-color="#F30F61"/>
</linearGradient>
<linearGradient id="paint3_linear_5_8" x1="58.2132" y1="76.7716" x2="92.0092" y2="180.438" gradientUnits="userSpaceOnUse">
<stop offset="0.00687781" stop-color="#1C6FEC"/>
<stop offset="1" stop-color="#F30F61"/>
</linearGradient>
<linearGradient id="paint4_linear_5_8" x1="58.2132" y1="84.4408" x2="92.0092" y2="188.107" gradientUnits="userSpaceOnUse">
<stop offset="0.00687781" stop-color="#1C6FEC"/>
<stop offset="1" stop-color="#F30F61"/>
</linearGradient>
<linearGradient id="paint5_linear_5_8" x1="58.2132" y1="92.1099" x2="92.0092" y2="195.776" gradientUnits="userSpaceOnUse">
<stop offset="0.00687781" stop-color="#1C6FEC"/>
<stop offset="1" stop-color="#F30F61"/>
</linearGradient>
</defs>
</svg>
