<svg width="152" height="33" viewBox="0 0 152 33" fill="none" xmlns="http://www.w3.org/2000/svg">
<rect width="30.8515" height="30.8515" transform="translate(0.103943 1.07428)" fill="url(#paint0_linear_1_1855)"/>
<path d="M16.6614 12.443H19.6141C21.2937 12.443 22.7565 13.0751 24.0026 14.3393C25.2487 15.6034 25.8717 17.1836 25.8717 19.0799C25.8717 20.9942 25.3028 22.5924 24.1651 23.8747C23.0454 25.1388 21.5555 25.7709 19.6954 25.7709C18.8285 25.7709 18.043 25.6625 17.3386 25.4458C16.6343 25.211 16.0835 24.9311 15.6862 24.6061C15.307 24.281 14.9819 23.9559 14.711 23.6309C14.4401 23.3058 14.2685 23.0259 14.1963 22.7911L14.0609 22.466L14.8194 22.141C14.8374 22.2132 14.8735 22.3125 14.9277 22.4389C14.9999 22.5653 15.1625 22.7911 15.4153 23.1162C15.6681 23.4412 15.9571 23.7302 16.2822 23.983C16.6253 24.2358 17.0948 24.4616 17.6908 24.6602C18.3048 24.8589 18.973 24.9582 19.6954 24.9582C21.3569 24.9582 22.6662 24.3984 23.6233 23.2787C24.5805 22.141 25.059 20.7413 25.059 19.0799C25.059 17.4907 24.5082 16.1272 23.4066 14.9894C22.323 13.8336 21.0228 13.2557 19.5058 13.2557H15.8487V6.53762H23.8671V7.3503H16.6614V12.443Z" fill="white"/>
<path d="M48.0346 9.78832V10.601H42.3459V25.5H41.5332V10.601H35.8445V9.78832H48.0346ZM60.9083 25.5H60.0956V17.6442H51.9689V25.5H51.1562V9.78832H51.9689V16.8315H60.0956V9.78832H60.9083V25.5ZM85.1727 10.3572C84.7574 9.30974 84.1704 8.5061 83.4119 7.94626C82.6534 7.36836 81.4706 7.07941 79.8633 7.07941C78.9784 7.07941 78.2199 7.19679 77.5878 7.43156C76.9557 7.64828 76.3868 8.02753 75.8812 8.56931C75.3755 9.11109 74.9963 9.89667 74.7434 10.9261C74.4906 11.9374 74.3642 13.1925 74.3642 14.6914V17.3462C74.3642 18.8451 74.4906 20.1093 74.7434 21.1387C74.9963 22.15 75.3755 22.9265 75.8812 23.4683C76.3868 24.0101 76.9557 24.3984 77.5878 24.6331C78.2199 24.8499 78.9784 24.9582 79.8633 24.9582C81.4886 24.9582 82.7799 24.6151 83.737 23.9288C84.6942 23.2245 85.1727 22.475 85.1727 21.6804V17.1024H81.8408V16.2897H86.1479V21.4095C86.1479 22.6195 85.5971 23.6489 84.4955 24.4977C83.4119 25.3465 81.8679 25.7709 79.8633 25.7709C77.642 25.7709 76.0347 25.0937 75.0414 23.7392C74.0481 22.3667 73.5515 20.2357 73.5515 17.3462V14.6914C73.5515 11.8019 74.0481 9.67996 75.0414 8.32551C76.0347 6.95299 77.642 6.26673 79.8633 6.26673C81.6511 6.26673 82.9875 6.60083 83.8725 7.26903C84.7574 7.91917 85.4436 8.84923 85.9312 10.0592L85.1727 10.3572ZM91.247 9.78832V17.6442C91.247 20.335 91.6714 22.2312 92.5202 23.3329C93.3871 24.4164 94.57 24.9582 96.0689 24.9582C97.5678 24.9582 98.7417 24.4164 99.5905 23.3329C100.457 22.2312 100.891 20.335 100.891 17.6442V9.78832H101.703V17.6442C101.703 23.062 99.8253 25.7709 96.0689 25.7709C92.3125 25.7709 90.4344 23.062 90.4344 17.6442V9.78832H91.247ZM106.578 9.78832H107.39V25.5H106.578V9.78832ZM122.688 9.78832V10.601H117V25.5H116.187V10.601H110.498V9.78832H122.688ZM127.246 24.6873H136.077L130.523 11.6033L124.618 25.5H123.751L130.523 9.51743L137.296 25.5H127.246V24.6873ZM146.996 17.6171L150.68 25.5H149.786L145.994 17.3733C146.03 17.3552 146.183 17.283 146.454 17.1566C146.743 17.0121 146.942 16.9128 147.05 16.8586C147.159 16.7863 147.339 16.669 147.592 16.5064C147.845 16.3439 148.034 16.1904 148.161 16.0459C148.287 15.8834 148.423 15.7028 148.567 15.5041C148.73 15.2874 148.847 15.0526 148.919 14.7998C148.992 14.5289 149.028 14.24 149.028 13.933C149.028 12.7952 148.486 11.9554 147.402 11.4137C146.319 10.8719 144.973 10.601 143.366 10.601H141.199V25.5H140.386V9.78832H143.366C145.497 9.78832 147.104 10.1585 148.188 10.899C149.29 11.6394 149.84 12.6507 149.84 13.933C149.84 14.7637 149.56 15.5041 149.001 16.1543C148.441 16.7863 147.773 17.2739 146.996 17.6171Z" fill="black"/>
<defs>
<linearGradient id="paint0_linear_1_1855" x1="0" y1="0" x2="27.8166" y2="28.9619" gradientUnits="userSpaceOnUse">
<stop stop-color="#4ABFF1"/>
<stop offset="1" stop-color="#F034A5"/>
</linearGradient>
</defs>
</svg>
