<svg width="125" height="123" viewBox="0 0 125 123" fill="none" xmlns="http://www.w3.org/2000/svg">
<rect width="3.36265" height="3.36265" rx="1.34409" fill="black"/>
<rect x="13.4506" width="3.36265" height="3.36265" rx="1.34409" fill="black"/>
<rect x="26.9013" width="3.36265" height="3.36265" rx="1.34409" fill="black"/>
<rect x="40.3517" width="3.36265" height="3.36265" rx="1.34409" fill="black"/>
<rect x="53.8024" width="3.36265" height="3.36265" rx="1.34409" fill="black"/>
<rect x="67.2531" width="3.36265" height="3.36265" rx="1.34409" fill="black"/>
<rect x="80.7037" width="3.36265" height="3.36265" rx="1.34409" fill="black"/>
<rect x="94.1544" width="3.36265" height="3.36265" rx="1.34409" fill="black"/>
<rect x="107.605" width="3.36265" height="3.36265" rx="1.34409" fill="black"/>
<rect x="121.055" width="3.36265" height="3.36265" rx="1.34409" fill="black"/>
<rect y="13.4506" width="3.36265" height="3.36265" rx="1.34409" fill="black"/>
<rect x="13.4506" y="13.4506" width="3.36265" height="3.36265" rx="1.34409" fill="black"/>
<rect x="26.9013" y="13.4506" width="3.36265" height="3.36265" rx="1.34409" fill="black"/>
<rect x="40.3517" y="13.4506" width="3.36265" height="3.36265" rx="1.34409" fill="black"/>
<rect x="53.8024" y="13.4506" width="3.36265" height="3.36265" rx="1.34409" fill="black"/>
<rect x="67.2531" y="13.4506" width="3.36265" height="3.36265" rx="1.34409" fill="black"/>
<rect x="80.7037" y="13.4506" width="3.36265" height="3.36265" rx="1.34409" fill="black"/>
<rect x="94.1544" y="13.4506" width="3.36265" height="3.36265" rx="1.34409" fill="black"/>
<rect x="107.605" y="13.4506" width="3.36265" height="3.36265" rx="1.34409" fill="black"/>
<rect x="121.055" y="13.4506" width="3.36265" height="3.36265" rx="1.34409" fill="black"/>
<rect y="26.9012" width="3.36265" height="3.36265" rx="1.34409" fill="black"/>
<rect x="13.4506" y="26.9012" width="3.36265" height="3.36265" rx="1.34409" fill="black"/>
<rect x="26.9013" y="26.9012" width="3.36265" height="3.36265" rx="1.34409" fill="black"/>
<rect x="40.3517" y="26.9012" width="3.36265" height="3.36265" rx="1.34409" fill="black"/>
<rect x="53.8024" y="26.9012" width="3.36265" height="3.36265" rx="1.34409" fill="black"/>
<rect x="67.2531" y="26.9012" width="3.36265" height="3.36265" rx="1.34409" fill="black"/>
<rect x="80.7037" y="26.9012" width="3.36265" height="3.36265" rx="1.34409" fill="black"/>
<rect x="94.1544" y="26.9012" width="3.36265" height="3.36265" rx="1.34409" fill="black"/>
<rect x="107.605" y="26.9012" width="3.36265" height="3.36265" rx="1.34409" fill="black"/>
<rect x="121.055" y="26.9012" width="3.36265" height="3.36265" rx="1.34409" fill="black"/>
<rect y="40.3518" width="3.36265" height="3.36265" rx="1.34409" fill="black"/>
<rect x="13.4506" y="40.3518" width="3.36265" height="3.36265" rx="1.34409" fill="black"/>
<rect x="26.9013" y="40.3518" width="3.36265" height="3.36265" rx="1.34409" fill="black"/>
<rect x="40.3517" y="40.3518" width="3.36265" height="3.36265" rx="1.34409" fill="black"/>
<rect x="53.8024" y="40.3518" width="3.36265" height="3.36265" rx="1.34409" fill="black"/>
<rect x="67.2531" y="40.3518" width="3.36265" height="3.36265" rx="1.34409" fill="black"/>
<rect x="80.7037" y="40.3518" width="3.36265" height="3.36265" rx="1.34409" fill="black"/>
<rect x="94.1544" y="40.3518" width="3.36265" height="3.36265" rx="1.34409" fill="black"/>
<rect x="107.605" y="40.3518" width="3.36265" height="3.36265" rx="1.34409" fill="black"/>
<rect x="121.055" y="40.3518" width="3.36265" height="3.36265" rx="1.34409" fill="black"/>
<rect y="53.8024" width="3.36265" height="3.36265" rx="1.34409" fill="black"/>
<rect x="13.4506" y="53.8024" width="3.36265" height="3.36265" rx="1.34409" fill="black"/>
<rect x="26.9013" y="53.8024" width="3.36265" height="3.36265" rx="1.34409" fill="black"/>
<rect x="40.3517" y="53.8024" width="3.36265" height="3.36265" rx="1.34409" fill="black"/>
<rect x="53.8024" y="53.8024" width="3.36265" height="3.36265" rx="1.34409" fill="black"/>
<rect x="67.2531" y="53.8024" width="3.36265" height="3.36265" rx="1.34409" fill="black"/>
<rect x="80.7037" y="53.8024" width="3.36265" height="3.36265" rx="1.34409" fill="black"/>
<rect x="94.1544" y="53.8024" width="3.36265" height="3.36265" rx="1.34409" fill="black"/>
<rect x="107.605" y="53.8024" width="3.36265" height="3.36265" rx="1.34409" fill="black"/>
<rect x="121.055" y="53.8024" width="3.36265" height="3.36265" rx="1.34409" fill="black"/>
<rect y="67.253" width="3.36265" height="3.36265" rx="1.34409" fill="black"/>
<rect x="13.4506" y="67.253" width="3.36265" height="3.36265" rx="1.34409" fill="black"/>
<rect x="26.9013" y="67.253" width="3.36265" height="3.36265" rx="1.34409" fill="black"/>
<rect x="40.3517" y="67.253" width="3.36265" height="3.36265" rx="1.34409" fill="black"/>
<rect x="53.8024" y="67.253" width="3.36265" height="3.36265" rx="1.34409" fill="black"/>
<rect x="67.2531" y="67.253" width="3.36265" height="3.36265" rx="1.34409" fill="black"/>
<rect x="80.7037" y="67.253" width="3.36265" height="3.36265" rx="1.34409" fill="black"/>
<rect x="94.1544" y="67.253" width="3.36265" height="3.36265" rx="1.34409" fill="black"/>
<rect x="107.605" y="67.253" width="3.36265" height="3.36265" rx="1.34409" fill="black"/>
<rect x="121.055" y="67.253" width="3.36265" height="3.36265" rx="1.34409" fill="black"/>
<rect y="80.7036" width="3.36265" height="3.36265" rx="1.34409" fill="black"/>
<rect y="93.6762" width="3.36265" height="3.36265" rx="1.34409" fill="black"/>
<rect y="106.649" width="3.36265" height="3.36265" rx="1.34409" fill="black"/>
<rect y="119.621" width="3.36265" height="3.36265" rx="1.34409" fill="black"/>
<rect x="13.4506" y="80.7036" width="3.36265" height="3.36265" rx="1.34409" fill="black"/>
<rect x="13.4506" y="93.6762" width="3.36265" height="3.36265" rx="1.34409" fill="black"/>
<rect x="13.4506" y="106.649" width="3.36265" height="3.36265" rx="1.34409" fill="black"/>
<rect x="13.4506" y="119.621" width="3.36265" height="3.36265" rx="1.34409" fill="black"/>
<rect x="26.9013" y="80.7036" width="3.36265" height="3.36265" rx="1.34409" fill="black"/>
<rect x="26.9013" y="93.6762" width="3.36265" height="3.36265" rx="1.34409" fill="black"/>
<rect x="26.9013" y="106.649" width="3.36265" height="3.36265" rx="1.34409" fill="black"/>
<rect x="26.9013" y="119.621" width="3.36265" height="3.36265" rx="1.34409" fill="black"/>
<rect x="40.3517" y="80.7036" width="3.36265" height="3.36265" rx="1.34409" fill="black"/>
<rect x="40.3517" y="93.6762" width="3.36265" height="3.36265" rx="1.34409" fill="black"/>
<rect x="40.3517" y="106.649" width="3.36265" height="3.36265" rx="1.34409" fill="black"/>
<rect x="40.3517" y="119.621" width="3.36265" height="3.36265" rx="1.34409" fill="black"/>
<rect x="53.8024" y="80.7036" width="3.36265" height="3.36265" rx="1.34409" fill="black"/>
<rect x="53.8024" y="93.6762" width="3.36265" height="3.36265" rx="1.34409" fill="black"/>
<rect x="53.8024" y="106.649" width="3.36265" height="3.36265" rx="1.34409" fill="black"/>
<rect x="53.8024" y="119.621" width="3.36265" height="3.36265" rx="1.34409" fill="black"/>
<rect x="67.2531" y="80.7036" width="3.36265" height="3.36265" rx="1.34409" fill="black"/>
<rect x="67.2531" y="93.6762" width="3.36265" height="3.36265" rx="1.34409" fill="black"/>
<rect x="67.2531" y="106.649" width="3.36265" height="3.36265" rx="1.34409" fill="black"/>
<rect x="67.2531" y="119.621" width="3.36265" height="3.36265" rx="1.34409" fill="black"/>
<rect x="80.7037" y="80.7036" width="3.36265" height="3.36265" rx="1.34409" fill="black"/>
<rect x="80.7037" y="93.6762" width="3.36265" height="3.36265" rx="1.34409" fill="black"/>
<rect x="80.7037" y="106.649" width="3.36265" height="3.36265" rx="1.34409" fill="black"/>
<rect x="80.7037" y="119.621" width="3.36265" height="3.36265" rx="1.34409" fill="black"/>
<rect x="94.1544" y="80.7036" width="3.36265" height="3.36265" rx="1.34409" fill="black"/>
<rect x="94.1544" y="93.6762" width="3.36265" height="3.36265" rx="1.34409" fill="black"/>
<rect x="94.1544" y="106.649" width="3.36265" height="3.36265" rx="1.34409" fill="black"/>
<rect x="94.1544" y="119.621" width="3.36265" height="3.36265" rx="1.34409" fill="black"/>
<rect x="107.605" y="80.7036" width="3.36265" height="3.36265" rx="1.34409" fill="black"/>
<rect x="107.605" y="93.6762" width="3.36265" height="3.36265" rx="1.34409" fill="black"/>
<rect x="107.605" y="106.649" width="3.36265" height="3.36265" rx="1.34409" fill="black"/>
<rect x="107.605" y="119.621" width="3.36265" height="3.36265" rx="1.34409" fill="black"/>
<rect x="121.055" y="80.7036" width="3.36265" height="3.36265" rx="1.34409" fill="black"/>
<rect x="121.055" y="93.6762" width="3.36265" height="3.36265" rx="1.34409" fill="black"/>
<rect x="121.055" y="106.649" width="3.36265" height="3.36265" rx="1.34409" fill="black"/>
<rect x="121.055" y="119.621" width="3.36265" height="3.36265" rx="1.34409" fill="black"/>
</svg>
