<svg width="300" height="231" viewBox="0 0 300 231" fill="none" xmlns="http://www.w3.org/2000/svg">
<path d="M87.134 102.477C87.134 99.0501 87.9997 96.5768 89.731 95.0574C91.4623 93.5381 94.2713 92.7784 98.158 92.7784C100.879 92.7784 103.069 93.4851 104.73 94.8984C106.391 96.3118 107.592 98.4671 108.334 101.364L103.405 105.074H100.808L106.532 100.781C105.79 98.4141 104.712 96.7534 103.299 95.7994C101.921 94.8454 100.207 94.3684 98.158 94.3684C96.7447 94.3684 95.5433 94.4568 94.554 94.6334C93.6 94.8101 92.6283 95.1634 91.639 95.6934C90.685 96.1881 89.9607 97.0008 89.466 98.1314C88.9713 99.2621 88.724 100.711 88.724 102.477C88.724 104.032 89.4307 105.41 90.844 106.611C92.2927 107.813 94.0417 108.837 96.091 109.685C98.1403 110.533 100.19 111.399 102.239 112.282C104.324 113.166 106.073 114.296 107.486 115.674C108.935 117.052 109.659 118.642 109.659 120.444C109.659 123.978 108.776 126.61 107.009 128.341C105.278 130.073 102.292 130.938 98.052 130.938C94.5893 130.938 91.8687 130.249 89.89 128.871C87.9113 127.458 86.551 125.285 85.809 122.352L87.293 121.716C87.9997 124.578 89.201 126.575 90.897 127.705C92.6283 128.801 95.0133 129.348 98.052 129.348C101.444 129.348 103.953 128.695 105.578 127.387C107.239 126.08 108.069 123.766 108.069 120.444C108.069 118.89 107.345 117.512 105.896 116.31C104.483 115.109 102.734 114.084 100.649 113.236C98.5997 112.388 96.5503 111.523 94.501 110.639C92.4517 109.756 90.7027 108.625 89.254 107.247C87.8407 105.869 87.134 104.279 87.134 102.477ZM119.281 127.175C117.373 124.667 116.419 120.621 116.419 115.038C116.419 109.456 117.373 105.41 119.281 102.901C121.189 100.393 124.351 99.1384 128.768 99.1384C133.185 99.1384 136.365 100.357 138.308 102.795L137.142 103.855C135.587 101.771 132.796 100.728 128.768 100.728C127.001 100.728 125.517 100.923 124.316 101.311C123.115 101.665 122.002 102.354 120.977 103.378C119.988 104.368 119.246 105.834 118.751 107.777C118.256 109.685 118.009 112.106 118.009 115.038C118.009 117.971 118.256 120.409 118.751 122.352C119.246 124.26 119.988 125.727 120.977 126.751C122.002 127.741 123.115 128.43 124.316 128.818C125.517 129.172 127.001 129.348 128.768 129.348C132.796 129.348 135.587 128.306 137.142 126.221L138.308 127.281C136.365 129.719 133.185 130.938 128.768 130.938C124.351 130.938 121.189 129.684 119.281 127.175ZM149.02 128.818H166.298L155.433 103.219L143.879 130.408H142.183L155.433 99.1384L168.683 130.408H149.02V128.818ZM192.431 128.818V130.408H174.729V99.6684H176.319V128.818H192.431ZM219.102 127.281C217.159 129.719 213.979 130.938 209.562 130.938C205.145 130.938 201.983 129.684 200.075 127.175C198.167 124.667 197.213 120.621 197.213 115.038C197.213 109.456 198.167 105.41 200.075 102.901C201.983 100.393 205.145 99.1384 209.562 99.1384C214.685 99.1384 218.166 100.817 220.003 104.173L207.018 115.038H204.527L217.936 103.855C216.381 101.771 213.59 100.728 209.562 100.728C207.795 100.728 206.311 100.923 205.11 101.311C203.909 101.665 202.796 102.354 201.771 103.378C200.782 104.368 200.04 105.834 199.545 107.777C199.05 109.685 198.803 112.106 198.803 115.038C198.803 117.971 199.05 120.409 199.545 122.352C200.04 124.26 200.782 125.727 201.771 126.751C202.796 127.741 203.909 128.43 205.11 128.818C206.311 129.172 207.795 129.348 209.562 129.348C213.59 129.348 216.381 128.306 217.936 126.221L219.102 127.281ZM235.683 99.0324C240.064 99.0324 243.174 100.004 245.011 101.947L243.951 103.113C242.255 101.453 239.57 100.622 235.895 100.622C230.383 100.622 227.627 102.813 227.627 107.194C227.627 108.89 228.298 110.251 229.641 111.275C230.984 112.265 232.609 113.024 234.517 113.554C236.46 114.084 238.386 114.65 240.294 115.25C242.237 115.816 243.88 116.752 245.223 118.059C246.566 119.331 247.237 121.01 247.237 123.094C247.237 125.532 246.23 127.476 244.216 128.924C242.202 130.373 239.287 131.097 235.471 131.097C233.598 131.097 231.743 130.85 229.906 130.355C228.104 129.861 226.761 129.136 225.878 128.182L226.938 127.016C228.74 128.677 231.514 129.507 235.259 129.507C238.686 129.507 241.266 128.871 242.997 127.599C244.764 126.327 245.647 124.843 245.647 123.147C245.647 121.381 244.976 119.95 243.633 118.854C242.29 117.759 240.647 116.946 238.704 116.416C236.796 115.851 234.87 115.286 232.927 114.72C231.019 114.12 229.394 113.201 228.051 111.964C226.708 110.728 226.037 109.102 226.037 107.088C226.037 104.368 226.938 102.354 228.74 101.046C230.577 99.7038 232.892 99.0324 235.683 99.0324Z" fill="black"/>
<circle cx="100.5" cy="115.909" r="10.1" stroke="url(#paint0_linear_5_10)" stroke-opacity="0.5" stroke-width="2"/>
<circle cx="100.5" cy="115.908" r="16.8333" stroke="url(#paint1_linear_5_10)" stroke-opacity="0.5" stroke-width="2"/>
<circle cx="100.5" cy="115.908" r="23.5667" stroke="url(#paint2_linear_5_10)" stroke-opacity="0.5" stroke-width="2"/>
<circle cx="100.5" cy="115.908" r="30.3" stroke="url(#paint3_linear_5_10)" stroke-opacity="0.5" stroke-width="2"/>
<circle cx="100.5" cy="115.908" r="37.0333" stroke="url(#paint4_linear_5_10)" stroke-opacity="0.5" stroke-width="2"/>
<circle cx="100.5" cy="115.908" r="43.7667" stroke="url(#paint5_linear_5_10)" stroke-opacity="0.5" stroke-width="2"/>
<circle cx="100.5" cy="115.908" r="50.5" stroke="url(#paint6_linear_5_10)" stroke-opacity="0.5" stroke-width="2"/>
<defs>
<linearGradient id="paint0_linear_5_10" x1="88.0975" y1="101.928" x2="106.312" y2="125.318" gradientUnits="userSpaceOnUse">
<stop offset="0.00687781" stop-color="#1C6FEC"/>
<stop offset="1" stop-color="#F30F61"/>
</linearGradient>
<linearGradient id="paint1_linear_5_10" x1="79.8292" y1="92.6075" x2="110.186" y2="131.591" gradientUnits="userSpaceOnUse">
<stop offset="0.00687781" stop-color="#1C6FEC"/>
<stop offset="1" stop-color="#F30F61"/>
</linearGradient>
<linearGradient id="paint2_linear_5_10" x1="71.5608" y1="83.2872" x2="114.061" y2="137.865" gradientUnits="userSpaceOnUse">
<stop offset="0.00687781" stop-color="#1C6FEC"/>
<stop offset="1" stop-color="#F30F61"/>
</linearGradient>
<linearGradient id="paint3_linear_5_10" x1="63.2924" y1="73.9669" x2="117.936" y2="144.138" gradientUnits="userSpaceOnUse">
<stop offset="0.00687781" stop-color="#1C6FEC"/>
<stop offset="1" stop-color="#F30F61"/>
</linearGradient>
<linearGradient id="paint4_linear_5_10" x1="55.0241" y1="64.6465" x2="121.81" y2="150.411" gradientUnits="userSpaceOnUse">
<stop offset="0.00687781" stop-color="#1C6FEC"/>
<stop offset="1" stop-color="#F30F61"/>
</linearGradient>
<linearGradient id="paint5_linear_5_10" x1="46.7558" y1="55.3261" x2="125.685" y2="156.684" gradientUnits="userSpaceOnUse">
<stop offset="0.00687781" stop-color="#1C6FEC"/>
<stop offset="1" stop-color="#F30F61"/>
</linearGradient>
<linearGradient id="paint6_linear_5_10" x1="38.4874" y1="46.0058" x2="129.559" y2="162.957" gradientUnits="userSpaceOnUse">
<stop offset="0.00687781" stop-color="#1C6FEC"/>
<stop offset="1" stop-color="#F30F61"/>
</linearGradient>
</defs>
</svg>
