<svg width="300" height="231" viewBox="0 0 300 231" fill="none" xmlns="http://www.w3.org/2000/svg">
<path d="M30.2511 97.5085V99.0985H17.7961V134.608H16.2061V99.0985H3.75105V97.5085H30.2511ZM49.0275 119.185L56.2355 134.608H54.4865L47.0665 118.708C47.1372 118.673 47.4375 118.532 47.9675 118.284C48.5329 118.002 48.9215 117.807 49.1335 117.701C49.3455 117.56 49.6989 117.33 50.1935 117.012C50.6882 116.694 51.0592 116.394 51.3065 116.111C51.5539 115.793 51.8189 115.44 52.1015 115.051C52.4195 114.627 52.6492 114.168 52.7905 113.673C52.9319 113.143 53.0025 112.578 53.0025 111.977C53.0025 109.751 51.9425 108.108 49.8225 107.048C47.7025 105.988 45.0702 105.458 41.9255 105.458H37.6855V134.608H36.0955V103.868H41.9255C46.0949 103.868 49.2395 104.593 51.3595 106.041C53.5149 107.49 54.5925 109.469 54.5925 111.977C54.5925 113.603 54.0449 115.051 52.9495 116.323C51.8542 117.56 50.5469 118.514 49.0275 119.185ZM66.2327 133.018H83.5107L72.6457 107.419L61.0917 134.608H59.3957L72.6457 103.338L85.8957 134.608H66.2327V133.018ZM91.9422 134.608V103.868H93.5322L110.81 131.693V103.868H112.4V134.608H110.81L93.5322 106.73V134.608H91.9422ZM130.588 103.232C134.97 103.232 138.079 104.204 139.916 106.147L138.856 107.313C137.16 105.653 134.475 104.822 130.8 104.822C125.288 104.822 122.532 107.013 122.532 111.394C122.532 113.09 123.204 114.451 124.546 115.475C125.889 116.465 127.514 117.224 129.422 117.754C131.366 118.284 133.291 118.85 135.199 119.45C137.143 120.016 138.786 120.952 140.128 122.259C141.471 123.531 142.142 125.21 142.142 127.294C142.142 129.732 141.135 131.676 139.121 133.124C137.107 134.573 134.192 135.297 130.376 135.297C128.504 135.297 126.649 135.05 124.811 134.555C123.009 134.061 121.667 133.336 120.783 132.382L121.843 131.216C123.645 132.877 126.419 133.707 130.164 133.707C133.592 133.707 136.171 133.071 137.902 131.799C139.669 130.527 140.552 129.043 140.552 127.347C140.552 125.581 139.881 124.15 138.538 123.054C137.196 121.959 135.553 121.146 133.609 120.616C131.701 120.051 129.776 119.486 127.832 118.92C125.924 118.32 124.299 117.401 122.956 116.164C121.614 114.928 120.942 113.302 120.942 111.288C120.942 108.568 121.843 106.554 123.645 105.246C125.483 103.904 127.797 103.232 130.588 103.232ZM151.396 131.375C149.488 128.867 148.534 124.821 148.534 119.238C148.534 113.656 149.488 109.61 151.396 107.101C153.304 104.593 156.467 103.338 160.883 103.338C165.3 103.338 168.48 104.557 170.423 106.995L169.257 108.055C167.703 105.971 164.911 104.928 160.883 104.928C159.117 104.928 157.633 105.123 156.431 105.511C155.23 105.865 154.117 106.554 153.092 107.578C152.103 108.568 151.361 110.034 150.866 111.977C150.372 113.885 150.124 116.306 150.124 119.238C150.124 122.171 150.372 124.609 150.866 126.552C151.361 128.46 152.103 129.927 153.092 130.951C154.117 131.941 155.23 132.63 156.431 133.018C157.633 133.372 159.117 133.548 160.883 133.548C164.911 133.548 167.703 132.506 169.257 130.421L170.423 131.481C168.48 133.919 165.3 135.138 160.883 135.138C156.467 135.138 153.304 133.884 151.396 131.375ZM191.258 119.185L198.466 134.608H196.717L189.297 118.708C189.368 118.673 189.668 118.532 190.198 118.284C190.763 118.002 191.152 117.807 191.364 117.701C191.576 117.56 191.929 117.33 192.424 117.012C192.919 116.694 193.29 116.394 193.537 116.111C193.784 115.793 194.049 115.44 194.332 115.051C194.65 114.627 194.88 114.168 195.021 113.673C195.162 113.143 195.233 112.578 195.233 111.977C195.233 109.751 194.173 108.108 192.053 107.048C189.933 105.988 187.301 105.458 184.156 105.458H179.916V134.608H178.326V103.868H184.156C188.325 103.868 191.47 104.593 193.59 106.041C195.745 107.49 196.823 109.469 196.823 111.977C196.823 113.603 196.275 115.051 195.18 116.323C194.085 117.56 192.777 118.514 191.258 119.185ZM205.654 103.868H207.244V134.608H205.654V103.868ZM224.932 134.608H217.3V103.868H223.13C227.299 103.868 230.444 104.593 232.564 106.041C234.719 107.49 235.797 109.469 235.797 111.977C235.797 114.981 234.472 117.154 231.822 118.496C233.765 119.168 235.214 120.175 236.168 121.517C237.122 122.825 237.599 124.344 237.599 126.075C237.599 128.619 236.539 130.686 234.419 132.276C232.334 133.831 229.172 134.608 224.932 134.608ZM224.932 133.018C228.041 133.018 230.656 132.453 232.776 131.322C234.931 130.192 236.009 128.443 236.009 126.075C236.009 124.98 235.602 123.796 234.79 122.524C233.977 121.217 232.723 120.263 231.027 119.662L228.271 118.708L230.815 117.383C231.698 116.924 232.475 116.235 233.147 115.316C233.853 114.362 234.207 113.249 234.207 111.977C234.207 109.751 233.147 108.108 231.027 107.048C228.907 105.988 226.274 105.458 223.13 105.458H218.89V133.018H224.932ZM266.279 131.481C264.335 133.919 261.155 135.138 256.739 135.138C252.322 135.138 249.16 133.884 247.252 131.375C245.344 128.867 244.39 124.821 244.39 119.238C244.39 113.656 245.344 109.61 247.252 107.101C249.16 104.593 252.322 103.338 256.739 103.338C261.862 103.338 265.342 105.017 267.18 108.373L254.195 119.238H251.704L265.113 108.055C263.558 105.971 260.767 104.928 256.739 104.928C254.972 104.928 253.488 105.123 252.287 105.511C251.085 105.865 249.972 106.554 248.948 107.578C247.958 108.568 247.216 110.034 246.722 111.977C246.227 113.885 245.98 116.306 245.98 119.238C245.98 122.171 246.227 124.609 246.722 126.552C247.216 128.46 247.958 129.927 248.948 130.951C249.972 131.941 251.085 132.63 252.287 133.018C253.488 133.372 254.972 133.548 256.739 133.548C260.767 133.548 263.558 132.506 265.113 130.421L266.279 131.481ZM287.683 119.185L294.891 134.608H293.142L285.722 118.708C285.792 118.673 286.093 118.532 286.623 118.284C287.188 118.002 287.577 117.807 287.789 117.701C288.001 117.56 288.354 117.33 288.849 117.012C289.343 116.694 289.714 116.394 289.962 116.111C290.209 115.793 290.474 115.44 290.757 115.051C291.075 114.627 291.304 114.168 291.446 113.673C291.587 113.143 291.658 112.578 291.658 111.977C291.658 109.751 290.598 108.108 288.478 107.048C286.358 105.988 283.725 105.458 280.581 105.458H276.341V134.608H274.751V103.868H280.581C284.75 103.868 287.895 104.593 290.015 106.041C292.17 107.49 293.248 109.469 293.248 111.977C293.248 113.603 292.7 115.051 291.605 116.323C290.509 117.56 289.202 118.514 287.683 119.185Z" fill="black"/>
<path d="M107.562 58.5795L107.602 61.4565C107.895 82.2866 130.423 95.1681 148.523 84.8542L151.124 83.3719C168.137 73.6775 189.295 85.8783 189.426 105.459L189.472 112.306C189.567 126.473 203.543 136.362 216.934 131.737V131.737" stroke="url(#paint0_linear_5_9)" stroke-opacity="0.5" stroke-width="0.653416"/>
<path d="M106.607 60.2335L106.647 63.1105C106.94 83.9405 129.469 96.8221 147.568 86.5081L150.169 85.0259C167.182 75.3315 188.34 87.5322 188.471 107.113L188.517 113.96C188.612 128.127 202.588 138.016 215.979 133.391V133.391" stroke="url(#paint1_linear_5_9)" stroke-opacity="0.5" stroke-width="0.653416"/>
<path d="M105.652 61.8874L105.693 64.7644C105.985 85.5945 128.514 98.476 146.613 88.1621L149.215 86.6798C166.227 76.9854 187.385 89.1862 187.516 108.767L187.562 115.614C187.657 129.781 201.633 139.67 215.025 135.045V135.045" stroke="url(#paint2_linear_5_9)" stroke-opacity="0.5" stroke-width="0.653416"/>
<path d="M104.697 63.5413L104.738 66.4183C105.03 87.2484 127.559 100.13 145.658 89.816L148.26 88.3337C165.272 78.6393 186.43 90.8401 186.561 110.42L186.607 117.268C186.702 131.435 200.678 141.324 214.07 136.699V136.699" stroke="url(#paint3_linear_5_9)" stroke-opacity="0.5" stroke-width="0.653416"/>
<path d="M103.742 65.1952L103.783 68.0722C104.075 88.9023 126.604 101.784 144.704 91.4699L147.305 89.9877C164.317 80.2932 185.475 92.494 185.606 112.074L185.652 118.922C185.747 133.089 199.724 142.978 213.115 138.353V138.353" stroke="url(#paint4_linear_5_9)" stroke-opacity="0.5" stroke-width="0.653416"/>
<path d="M102.787 66.8492L102.828 69.7262C103.12 90.5562 125.649 103.438 143.749 93.1238L146.35 91.6416C163.362 81.9472 184.52 94.1479 184.651 113.728L184.697 120.576C184.792 134.743 198.768 144.632 212.16 140.007V140.007" stroke="url(#paint5_linear_5_9)" stroke-opacity="0.5" stroke-width="0.653416"/>
<path d="M101.833 68.5031L101.873 71.3801C102.165 92.2102 124.694 105.092 142.794 94.7778L145.395 93.2955C162.407 83.6011 183.565 95.8019 183.697 115.382L183.742 122.23C183.837 136.397 197.814 146.286 211.205 141.661V141.661" stroke="url(#paint6_linear_5_9)" stroke-opacity="0.5" stroke-width="0.653416"/>
<path d="M100.878 70.157L100.918 73.034C101.21 93.8641 123.739 106.746 141.839 96.4317L144.44 94.9494C161.453 85.255 182.611 97.4558 182.742 117.036L182.788 123.884C182.882 138.051 196.859 147.94 210.25 143.315V143.315" stroke="url(#paint7_linear_5_9)" stroke-opacity="0.5" stroke-width="0.653416"/>
<path d="M99.9228 71.811L99.9631 74.688C100.255 95.518 122.784 108.4 140.884 98.0857L143.485 96.6034C160.498 86.909 181.656 99.1098 181.787 118.69L181.833 125.538C181.927 139.705 195.904 149.594 209.295 144.969V144.969" stroke="url(#paint8_linear_5_9)" stroke-opacity="0.5" stroke-width="0.653416"/>
<path d="M98.968 73.4649L99.0084 76.3419C99.3006 97.1719 121.829 110.054 139.929 99.7396L142.53 98.2573C159.543 88.5629 180.701 100.764 180.832 120.344L180.878 127.192C180.973 141.359 194.949 151.248 208.34 146.623V146.623" stroke="url(#paint9_linear_5_9)" stroke-opacity="0.5" stroke-width="0.653416"/>
<path d="M98.013 75.1188L98.0533 77.9958C98.3455 98.8259 120.874 111.707 138.974 101.393L141.575 99.9112C158.588 90.2168 179.746 102.418 179.877 121.998L179.923 128.846C180.018 143.013 193.994 152.902 207.385 148.277V148.277" stroke="url(#paint10_linear_5_9)" stroke-opacity="0.5" stroke-width="0.653416"/>
<path d="M97.0581 76.7727L97.0985 79.6497C97.3907 100.48 119.92 113.361 138.019 103.047L140.62 101.565C157.633 91.8707 178.791 104.071 178.922 123.652L178.968 130.499C179.063 144.667 193.039 154.556 206.43 149.931V149.931" stroke="url(#paint11_linear_5_9)" stroke-opacity="0.5" stroke-width="0.653416"/>
<path d="M96.1033 78.4266L96.1437 81.3036C96.4359 102.134 118.965 115.015 137.064 104.701L139.666 103.219C156.678 93.5246 177.836 105.725 177.967 125.306L178.013 132.153C178.108 146.32 192.084 156.209 205.476 151.585V151.585" stroke="url(#paint12_linear_5_9)" stroke-opacity="0.5" stroke-width="0.653416"/>
<path d="M95.1484 80.0806L95.1887 82.9576C95.4809 103.788 118.01 116.669 136.11 106.355L138.711 104.873C155.723 95.1786 176.881 107.379 177.012 126.96L177.058 133.807C177.153 147.974 191.129 157.863 204.521 153.239V153.239" stroke="url(#paint13_linear_5_9)" stroke-opacity="0.5" stroke-width="0.653416"/>
<path d="M94.1935 81.7345L94.2339 84.6115C94.526 105.442 117.055 118.323 135.155 108.009L137.756 106.527C154.768 96.8325 175.926 109.033 176.057 128.614L176.103 135.461C176.198 149.628 190.175 159.517 203.566 154.892V154.892" stroke="url(#paint14_linear_5_9)" stroke-opacity="0.5" stroke-width="0.653416"/>
<path d="M93.2612 83.3493L93.3016 86.2263C93.5937 107.056 116.123 119.938 134.222 109.624L136.824 108.142C153.836 98.4473 174.994 110.648 175.125 130.228L175.171 137.076C175.266 151.243 189.242 161.132 202.634 156.507V156.507" stroke="url(#paint15_linear_5_9)" stroke-opacity="0.5" stroke-width="0.653416"/>
<path d="M92.3289 84.9641L92.3693 87.8411C92.6615 108.671 115.19 121.553 133.29 111.239L135.891 109.757C152.904 100.062 174.062 112.263 174.193 131.843L174.239 138.691C174.334 152.858 188.31 162.747 201.701 158.122V158.122" stroke="url(#paint16_linear_5_9)" stroke-opacity="0.5" stroke-width="0.653416"/>
<path d="M91.3966 86.5788L91.437 89.4558C91.7292 110.286 114.258 123.167 132.358 112.854L134.959 111.371C151.971 101.677 173.129 113.878 173.261 133.458L173.306 140.306C173.401 154.473 187.378 164.362 200.769 159.737V159.737" stroke="url(#paint17_linear_5_9)" stroke-opacity="0.5" stroke-width="0.653416"/>
<path d="M90.4643 88.1936L90.5047 91.0706C90.7969 111.901 113.326 124.782 131.425 114.468L134.027 112.986C151.039 103.292 172.197 115.492 172.328 135.073L172.374 141.92C172.469 156.087 186.445 165.976 199.837 161.352V161.352" stroke="url(#paint18_linear_5_9)" stroke-opacity="0.5" stroke-width="0.653416"/>
<path d="M89.532 89.8084L89.5724 92.6854C89.8646 113.515 112.394 126.397 130.493 116.083L133.094 114.601C150.107 104.906 171.265 117.107 171.396 136.688L171.442 143.535C171.537 157.702 185.513 167.591 198.904 162.966V162.966" stroke="url(#paint19_linear_5_9)" stroke-opacity="0.5" stroke-width="0.653416"/>
<path d="M88.5997 91.4232L88.6401 94.3002C88.9323 115.13 111.461 128.012 129.561 117.698L132.162 116.216C149.175 106.521 170.332 118.722 170.464 138.302L170.51 145.15C170.604 159.317 184.581 169.206 197.972 164.581V164.581" stroke="url(#paint20_linear_5_9)" stroke-opacity="0.5" stroke-width="0.653416"/>
<path d="M87.6674 93.0379L87.7078 95.915C88 116.745 110.529 129.627 128.629 119.313L131.23 117.83C148.242 108.136 169.4 120.337 169.531 139.917L169.577 146.765C169.672 160.932 183.648 170.821 197.04 166.196V166.196" stroke="url(#paint21_linear_5_9)" stroke-opacity="0.5" stroke-width="0.653416"/>
<path d="M86.7352 94.6528L86.7755 97.5298C87.0677 118.36 109.597 131.241 127.696 120.927L130.297 119.445C147.31 109.751 168.468 121.952 168.599 141.532L168.645 148.379C168.74 162.547 182.716 172.436 196.107 167.811V167.811" stroke="url(#paint22_linear_5_9)" stroke-opacity="0.5" stroke-width="0.653416"/>
<path d="M85.8029 96.2676L85.8432 99.1446C86.1354 119.975 108.664 132.856 126.764 122.542L129.365 121.06C146.378 111.366 167.536 123.566 167.667 143.147L167.713 149.994C167.808 164.161 181.784 174.05 195.175 169.425V169.425" stroke="url(#paint23_linear_5_9)" stroke-opacity="0.5" stroke-width="0.653416"/>
<path d="M84.8706 97.8823L84.9109 100.759C85.2031 121.589 107.732 134.471 125.832 124.157L128.433 122.675C145.445 112.98 166.603 125.181 166.734 144.761L166.78 151.609C166.875 165.776 180.852 175.665 194.243 171.04V171.04" stroke="url(#paint24_linear_5_9)" stroke-opacity="0.5" stroke-width="0.653416"/>
<path d="M83.9383 99.4971L83.9786 102.374C84.2708 123.204 106.8 136.086 124.899 125.772L127.501 124.29C144.513 114.595 165.671 126.796 165.802 146.376L165.848 153.224C165.943 167.391 179.919 177.28 193.311 172.655V172.655" stroke="url(#paint25_linear_5_9)" stroke-opacity="0.5" stroke-width="0.653416"/>
<path d="M83.006 101.112L83.0463 103.989C83.3385 124.819 105.867 137.7 123.967 127.387L126.568 125.904C143.581 116.21 164.739 128.411 164.87 147.991L164.916 154.839C165.011 169.006 178.987 178.895 192.378 174.27V174.27" stroke="url(#paint26_linear_5_9)" stroke-opacity="0.5" stroke-width="0.653416"/>
<path d="M82.0737 102.727L82.114 105.604C82.4062 126.434 104.935 139.315 123.035 129.001L125.636 127.519C142.648 117.825 163.806 130.025 163.938 149.606L163.983 156.453C164.078 170.62 178.055 180.509 191.446 175.885V175.885" stroke="url(#paint27_linear_5_9)" stroke-opacity="0.5" stroke-width="0.653416"/>
<path d="M81.1414 104.341L81.1817 107.218C81.4739 128.048 104.003 140.93 122.103 130.616L124.704 129.134C141.716 119.439 162.874 131.64 163.005 151.221L163.051 158.068C163.146 172.235 177.122 182.124 190.514 177.499V177.499" stroke="url(#paint28_linear_5_9)" stroke-opacity="0.5" stroke-width="0.653416"/>
<defs>
<linearGradient id="paint0_linear_5_9" x1="121.355" y1="4.75697" x2="110.725" y2="139.266" gradientUnits="userSpaceOnUse">
<stop offset="0.00687781" stop-color="#1C6FEC"/>
<stop offset="1" stop-color="#F30F61"/>
</linearGradient>
<linearGradient id="paint1_linear_5_9" x1="120.4" y1="6.41093" x2="109.77" y2="140.92" gradientUnits="userSpaceOnUse">
<stop offset="0.00687781" stop-color="#1C6FEC"/>
<stop offset="1" stop-color="#F30F61"/>
</linearGradient>
<linearGradient id="paint2_linear_5_9" x1="119.445" y1="8.06486" x2="108.815" y2="142.574" gradientUnits="userSpaceOnUse">
<stop offset="0.00687781" stop-color="#1C6FEC"/>
<stop offset="1" stop-color="#F30F61"/>
</linearGradient>
<linearGradient id="paint3_linear_5_9" x1="118.49" y1="9.71876" x2="107.86" y2="144.228" gradientUnits="userSpaceOnUse">
<stop offset="0.00687781" stop-color="#1C6FEC"/>
<stop offset="1" stop-color="#F30F61"/>
</linearGradient>
<linearGradient id="paint4_linear_5_9" x1="117.536" y1="11.3727" x2="106.905" y2="145.882" gradientUnits="userSpaceOnUse">
<stop offset="0.00687781" stop-color="#1C6FEC"/>
<stop offset="1" stop-color="#F30F61"/>
</linearGradient>
<linearGradient id="paint5_linear_5_9" x1="116.58" y1="13.0266" x2="105.95" y2="147.536" gradientUnits="userSpaceOnUse">
<stop offset="0.00687781" stop-color="#1C6FEC"/>
<stop offset="1" stop-color="#F30F61"/>
</linearGradient>
<linearGradient id="paint6_linear_5_9" x1="115.626" y1="14.6806" x2="104.995" y2="149.19" gradientUnits="userSpaceOnUse">
<stop offset="0.00687781" stop-color="#1C6FEC"/>
<stop offset="1" stop-color="#F30F61"/>
</linearGradient>
<linearGradient id="paint7_linear_5_9" x1="114.671" y1="16.3345" x2="104.04" y2="150.844" gradientUnits="userSpaceOnUse">
<stop offset="0.00687781" stop-color="#1C6FEC"/>
<stop offset="1" stop-color="#F30F61"/>
</linearGradient>
<linearGradient id="paint8_linear_5_9" x1="113.716" y1="17.9884" x2="103.085" y2="152.498" gradientUnits="userSpaceOnUse">
<stop offset="0.00687781" stop-color="#1C6FEC"/>
<stop offset="1" stop-color="#F30F61"/>
</linearGradient>
<linearGradient id="paint9_linear_5_9" x1="112.761" y1="19.6423" x2="102.131" y2="154.151" gradientUnits="userSpaceOnUse">
<stop offset="0.00687781" stop-color="#1C6FEC"/>
<stop offset="1" stop-color="#F30F61"/>
</linearGradient>
<linearGradient id="paint10_linear_5_9" x1="111.806" y1="21.2963" x2="101.176" y2="155.805" gradientUnits="userSpaceOnUse">
<stop offset="0.00687781" stop-color="#1C6FEC"/>
<stop offset="1" stop-color="#F30F61"/>
</linearGradient>
<linearGradient id="paint11_linear_5_9" x1="110.851" y1="22.9502" x2="100.221" y2="157.459" gradientUnits="userSpaceOnUse">
<stop offset="0.00687781" stop-color="#1C6FEC"/>
<stop offset="1" stop-color="#F30F61"/>
</linearGradient>
<linearGradient id="paint12_linear_5_9" x1="109.896" y1="24.6041" x2="99.2659" y2="159.113" gradientUnits="userSpaceOnUse">
<stop offset="0.00687781" stop-color="#1C6FEC"/>
<stop offset="1" stop-color="#F30F61"/>
</linearGradient>
<linearGradient id="paint13_linear_5_9" x1="108.941" y1="26.258" x2="98.311" y2="160.767" gradientUnits="userSpaceOnUse">
<stop offset="0.00687781" stop-color="#1C6FEC"/>
<stop offset="1" stop-color="#F30F61"/>
</linearGradient>
<linearGradient id="paint14_linear_5_9" x1="107.987" y1="27.912" x2="97.3561" y2="162.421" gradientUnits="userSpaceOnUse">
<stop offset="0.00687781" stop-color="#1C6FEC"/>
<stop offset="1" stop-color="#F30F61"/>
</linearGradient>
<linearGradient id="paint15_linear_5_9" x1="107.054" y1="29.5268" x2="96.4238" y2="164.036" gradientUnits="userSpaceOnUse">
<stop offset="0.00687781" stop-color="#1C6FEC"/>
<stop offset="1" stop-color="#F30F61"/>
</linearGradient>
<linearGradient id="paint16_linear_5_9" x1="106.122" y1="31.1415" x2="95.4915" y2="165.651" gradientUnits="userSpaceOnUse">
<stop offset="0.00687781" stop-color="#1C6FEC"/>
<stop offset="1" stop-color="#F30F61"/>
</linearGradient>
<linearGradient id="paint17_linear_5_9" x1="105.19" y1="32.7563" x2="94.5592" y2="167.265" gradientUnits="userSpaceOnUse">
<stop offset="0.00687781" stop-color="#1C6FEC"/>
<stop offset="1" stop-color="#F30F61"/>
</linearGradient>
<linearGradient id="paint18_linear_5_9" x1="104.257" y1="34.3711" x2="93.6269" y2="168.88" gradientUnits="userSpaceOnUse">
<stop offset="0.00687781" stop-color="#1C6FEC"/>
<stop offset="1" stop-color="#F30F61"/>
</linearGradient>
<linearGradient id="paint19_linear_5_9" x1="103.325" y1="35.9858" x2="92.6946" y2="170.495" gradientUnits="userSpaceOnUse">
<stop offset="0.00687781" stop-color="#1C6FEC"/>
<stop offset="1" stop-color="#F30F61"/>
</linearGradient>
<linearGradient id="paint20_linear_5_9" x1="102.393" y1="37.6006" x2="91.7623" y2="172.11" gradientUnits="userSpaceOnUse">
<stop offset="0.00687781" stop-color="#1C6FEC"/>
<stop offset="1" stop-color="#F30F61"/>
</linearGradient>
<linearGradient id="paint21_linear_5_9" x1="101.46" y1="39.2154" x2="90.83" y2="173.725" gradientUnits="userSpaceOnUse">
<stop offset="0.00687781" stop-color="#1C6FEC"/>
<stop offset="1" stop-color="#F30F61"/>
</linearGradient>
<linearGradient id="paint22_linear_5_9" x1="100.528" y1="40.8302" x2="89.8977" y2="175.339" gradientUnits="userSpaceOnUse">
<stop offset="0.00687781" stop-color="#1C6FEC"/>
<stop offset="1" stop-color="#F30F61"/>
</linearGradient>
<linearGradient id="paint23_linear_5_9" x1="99.5959" y1="42.445" x2="88.9654" y2="176.954" gradientUnits="userSpaceOnUse">
<stop offset="0.00687781" stop-color="#1C6FEC"/>
<stop offset="1" stop-color="#F30F61"/>
</linearGradient>
<linearGradient id="paint24_linear_5_9" x1="98.6636" y1="44.0598" x2="88.0331" y2="178.569" gradientUnits="userSpaceOnUse">
<stop offset="0.00687781" stop-color="#1C6FEC"/>
<stop offset="1" stop-color="#F30F61"/>
</linearGradient>
<linearGradient id="paint25_linear_5_9" x1="97.7313" y1="45.6746" x2="87.1008" y2="180.184" gradientUnits="userSpaceOnUse">
<stop offset="0.00687781" stop-color="#1C6FEC"/>
<stop offset="1" stop-color="#F30F61"/>
</linearGradient>
<linearGradient id="paint26_linear_5_9" x1="96.799" y1="47.2893" x2="86.1685" y2="181.798" gradientUnits="userSpaceOnUse">
<stop offset="0.00687781" stop-color="#1C6FEC"/>
<stop offset="1" stop-color="#F30F61"/>
</linearGradient>
<linearGradient id="paint27_linear_5_9" x1="95.8667" y1="48.9041" x2="85.2362" y2="183.413" gradientUnits="userSpaceOnUse">
<stop offset="0.00687781" stop-color="#1C6FEC"/>
<stop offset="1" stop-color="#F30F61"/>
</linearGradient>
<linearGradient id="paint28_linear_5_9" x1="94.9344" y1="50.5189" x2="84.304" y2="185.028" gradientUnits="userSpaceOnUse">
<stop offset="0.00687781" stop-color="#1C6FEC"/>
<stop offset="1" stop-color="#F30F61"/>
</linearGradient>
</defs>
</svg>
